<?xml version="1.0" encoding="utf-8"?>
<!-- Generator: Adobe Illustrator 24.2.3, SVG Export Plug-In . SVG Version: 6.00 Build 0)  -->
<svg version="1.1" id="Слой_1" xmlns="http://www.w3.org/2000/svg" xmlns:xlink="http://www.w3.org/1999/xlink" x="0px" y="0px"
	 viewBox="0 0 730 78" style="enable-background:new 0 0 730 78;" xml:space="preserve">
<style type="text/css">
	.st0{display:none;}
	.st1{display:inline;}
	.st2{fill:#024788;}
	.st3{fill:#E1EAF9;}
	.st4{fill:#C5DEF8;}
	.st5{fill:#8ADAF9;}
	.st6{fill:#2EBCF6;}
	.st7{fill:#B8D6FB;}
	.st8{display:inline;fill:#5E0404;}
	.st9{display:inline;fill:#D31E1E;}
	.st10{display:inline;fill:#FF0606;}
	.st11{display:none;fill:#FF0606;}
	.st12{display:none;fill:#D31E1E;}
	.st13{display:none;fill:#890000;}
	.st14{display:none;fill:#FF7F15;}
	.st15{display:none;fill:#EA6A0A;}
	.st16{display:none;fill:#FFA412;}
	.st17{display:none;fill:#FF7915;}
	.st18{display:none;fill:#A80404;}
	.st19{display:none;fill:#5E0404;}
	.st20{display:none;fill:#350202;}
	.st21{display:inline;fill:#FFE799;}
	.st22{display:inline;fill:#FF7F15;}
	.st23{display:none;fill:#FFC217;}
	.st24{display:inline;fill:#A80404;}
	.st25{display:inline;fill:#8C0000;}
	.st26{display:inline;fill:#FFC217;}
	.st27{display:none;enable-background:new    ;}
	.st28{font-family:'ArialMT';}
	.st29{font-size:80.6796px;}
	.st30{fill:#FB4039;}
	.st31{display:none;fill:#3D068C;}
	.st32{display:none;fill:#744FC1;}
	.st33{display:none;fill:#2B0065;}
	.st34{display:none;fill:#8E6FCC;}
	.st35{display:none;fill:#5733B1;}
	.st36{display:none;fill:#5628B4;}
	.st37{display:none;fill:#3A0499;}
	.st38{display:none;fill:#E7455F;}
	.st39{display:inline;fill:#F7B236;}
	.st40{display:none;fill:#EE7B8E;}
	.st41{display:none;fill:#B6A4E0;}
	.st42{display:inline;fill:#FBD99C;}
	.st43{fill:#4F124E;}
	.st44{fill:#FA607F;}
</style>
<g class="st0">
	<g class="st1">
		<circle class="st2" cx="42.7" cy="39.3" r="38.7"/>
	</g>
	<g class="st1">
		<path class="st3" d="M42.7,14.8c0.7,0,1.3,0,2,0.1v-6c-0.7,0-1.3-0.1-2-0.1c-16.8,0-30.5,13.7-30.5,30.5
			c0,10.3,5.1,19.4,12.9,24.9c1.6,1.1,3.8,0.5,4.5-1.3c0.5-1.3,0.1-2.8-1-3.6c-6.3-4.4-10.4-11.7-10.4-20
			C18.2,25.8,29.2,14.8,42.7,14.8z"/>
	</g>
	<g class="st1">
		<path class="st4" d="M42.7,8.8c-8.1,0-15.5,3.2-21,8.4c1.2-0.7,2.7-0.5,3.8,0.5c1.1,1.1,1.2,2.7,0.4,3.9
			c4.4-4.2,10.3-6.8,16.9-6.8c0.7,0,1.3,0,2,0.1v-6C44,8.8,43.3,8.8,42.7,8.8z"/>
	</g>
	<g class="st1">
		<g>
			<path class="st3" d="M55.7,15.7c-0.5,1.3-0.1,2.8,1,3.6c6.3,4.4,10.4,11.7,10.4,20c0,13.5-11,24.5-24.5,24.5c-0.7,0-1.3,0-2-0.1
				v6.1c0.7,0,1.3,0.1,2,0.1c16.8,0,30.5-13.7,30.5-30.5c0-10.3-5.1-19.4-12.9-24.9C58.7,13.3,56.5,13.9,55.7,15.7L55.7,15.7z"/>
		</g>
	</g>
	<g class="st1">
		<path class="st4" d="M59.9,61c-1.1-1.1-1.2-2.7-0.4-3.9c-4.4,4.2-10.3,6.8-16.9,6.8c-0.7,0-1.3,0-2-0.1v6.1c0.7,0,1.3,0.1,2,0.1
			c8.1,0,15.5-3.2,21-8.4C62.5,62.1,61,62,59.9,61L59.9,61z"/>
	</g>
	<g class="st1">
		<path class="st3" d="M43.9,18.2c0,0.7,0.8,1.2,1.4,0.7l5.9-5.4c0.7-0.6,0.7-1.7,0.1-2.3l-5.3-6c-0.5-0.5-1.4-0.2-1.4,0.5
			L43.9,18.2z"/>
	</g>
	<g class="st1">
		<path class="st3" d="M41.5,60.5c0-0.7-0.8-1.2-1.4-0.7l-5.9,5.4c-0.7,0.6-0.7,1.7-0.1,2.3l5.4,5.9c0.5,0.5,1.4,0.2,1.4-0.5
			L41.5,60.5z"/>
	</g>
	<g class="st1">
		<path class="st5" d="M44.9,26.6c-1.2-1.2-3.2-1.2-4.4,0c-3.1,3.1-8.4,9.3-8.4,16.5c0,5.4,4.7,9.8,10.6,9.8s10.6-4.4,10.6-9.8
			C53.3,35.9,48,29.7,44.9,26.6z"/>
	</g>
	<g class="st1">
		<path class="st6" d="M39.2,43.1c0-6.2,4-11.7,7-15.1c-0.5-0.5-1-1-1.4-1.4c-1.2-1.2-3.2-1.2-4.4,0c-3.1,3.1-8.4,9.3-8.4,16.5
			c0,5.4,4.7,9.8,10.6,9.8c1.3,0,2.5-0.2,3.6-0.6C42.2,51,39.2,47.4,39.2,43.1L39.2,43.1z"/>
	</g>
</g>
<g class="st0">
	<g class="st1">
		<path class="st7" d="M85.5,8.4H103l3.6,28.3c0.7,6.8,1.5,13.6,2.2,20.3h0.4c1.2-6.8,2.4-13.7,3.6-20.3L119,8.4h14.4l6.2,28.3
			c1.2,6.5,2.4,13.5,3.6,20.3h0.4c0.7-6.9,1.5-13.8,2.2-20.3l3.6-28.3h16.3l-10.8,64.8h-21.7l-5-25.7c-1-5-1.8-10.4-2.4-15.2h-0.4
			c-0.7,4.8-1.4,10.2-2.4,15.2l-4.8,25.7H96.9L85.5,8.4z"/>
		<path class="st7" d="M170.4,59.1c0-10.4,8-16.1,27.1-18.1c-0.4-3.6-2.6-5.2-7-5.2c-3.6,0-7.4,1.4-12.6,4.2l-6-11.2
			c7-4.2,14.2-6.6,21.9-6.6c13,0,20.7,7,20.7,23.3v27.7h-14l-1.2-4.8h-0.4c-4,3.6-8.4,6-13.8,6C176,74.4,170.4,67.3,170.4,59.1z
			 M197.5,57.9v-6.8c-8.2,1.2-10.8,3.8-10.8,6.6c0,2.3,1.6,3.6,4.6,3.6C194.2,61.3,195.8,59.9,197.5,57.9z"/>
		<path class="st7" d="M228.1,54.1V36.8h-6.6V24l7.6-0.6l2-13h14.2v13h11.4v13.4h-11.4v17c0,5.5,2.8,7.3,6,7.3
			c1.6,0,3.2-0.4,4.4-0.8l2.6,12.4c-2.6,0.8-6.3,1.8-11.8,1.8C233.4,74.4,228.1,66.3,228.1,54.1z"/>
		<path class="st7" d="M263.1,48.3c0-16.1,11.8-26.1,23.9-26.1c14.8,0,21.7,10.8,21.7,24.1c0,3-0.4,6-0.7,7.2h-28.4
			c1.6,6,6,8,11.6,8c3.4,0,6.6-1,10.2-3l5.6,10.2c-5.4,3.8-12.6,5.8-18.1,5.8C274.3,74.4,263.1,64.9,263.1,48.3z M294.2,42.3
			c0-3.8-1.6-7.2-6.8-7.2c-3.8,0-7,2.2-8,7.2H294.2z"/>
		<path class="st7" d="M318.2,23.4h14l1.2,8.6h0.4c3.7-6.8,9.3-9.8,14.2-9.8c3.1,0,4.8,0.4,6.2,1L351.3,38c-1.8-0.4-3.4-0.8-5.6-0.8
			c-3.6,0-8,2.2-10.4,8.4v27.7h-17.1L318.2,23.4L318.2,23.4z"/>
		<path class="st7" d="M381.2,8.4h42.3v14.4h-25.1v12.4h21.5v14.4h-21.5v23.7h-17.1L381.2,8.4L381.2,8.4z"/>
		<path class="st7" d="M432.2,8.6c0-5,4-8.6,9.6-8.6s9.6,3.6,9.6,8.6s-4,8.6-9.6,8.6S432.2,13.6,432.2,8.6z M433.2,23.4h17.1v49.8
			h-17.1V23.4z"/>
		<path class="st7" d="M461.9,23.4h14l1.2,6h0.4c4-3.8,9-7.2,15.8-7.2c11,0,15.6,8,15.6,20.3v30.7h-17.1V44.7c0-6.4-1.6-8-5-8
			c-3.2,0-5,1.4-7.6,3.8v32.7h-17.1V23.4H461.9z"/>
		<path class="st7" d="M518,59.1c0-10.4,8-16.1,27.1-18.1c-0.4-3.6-2.6-5.2-7-5.2c-3.6,0-7.4,1.4-12.6,4.2l-6-11.2
			c7-4.2,14.2-6.6,21.9-6.6c13,0,20.7,7,20.7,23.3v27.7h-14l-1.2-4.8h-0.4c-4,3.6-8.4,6-13.8,6C523.5,74.4,518,67.3,518,59.1z
			 M545.1,57.9v-6.8c-8.2,1.2-10.8,3.8-10.8,6.6c0,2.3,1.6,3.6,4.6,3.6C541.7,61.3,543.3,59.9,545.1,57.9z"/>
		<path class="st7" d="M573.4,23.4h14l1.2,6h0.4c4-3.8,9-7.2,15.8-7.2c11,0,15.6,8,15.6,20.3v30.7h-17.1V44.7c0-6.4-1.6-8-5-8
			c-3.2,0-5,1.4-7.6,3.8v32.7h-17.1V23.4H573.4z"/>
		<path class="st7" d="M628.8,48.3c0-16.5,12.6-26.1,26.7-26.1c6,0,10.8,2,14.6,5.2l-8,11c-2.2-1.8-3.8-2.4-5.6-2.4
			c-6.4,0-10.2,4.8-10.2,12.4s4.2,12.4,9.6,12.4c2.8,0,5.6-1.4,8-3.2l6.6,11.2c-5,4.4-11.4,5.8-16.5,5.8
			C639.8,74.4,628.8,64.9,628.8,48.3z"/>
		<path class="st7" d="M675.9,48.3c0-16.1,11.8-26.1,23.9-26.1c14.8,0,21.7,10.8,21.7,24.1c0,3-0.4,6-0.7,7.2h-28.4
			c1.6,6,6,8,11.6,8c3.4,0,6.6-1,10.2-3l5.6,10.2c-5.4,3.8-12.6,5.8-18.1,5.8C687,74.4,675.9,64.9,675.9,48.3z M707,42.3
			c0-3.8-1.6-7.2-6.8-7.2c-3.8,0-7,2.2-8,7.2H707z"/>
	</g>
</g>
<g class="st0">
	<ellipse class="st8" cx="43.6" cy="70.2" rx="15.3" ry="7.8"/>
	<path class="st8" d="M20.4,12.4c0,0,0.4-7.4,8.4-11.7c0,0,5.6,0.5,8.9,4.6c0,0,2.4-2.5,4.1-2.3l1.8,2v13.5l-20.8,2.8L20.4,12.4z"/>
	<path class="st8" d="M66.8,12.4c0,0-0.4-7.4-8.4-11.7c0,0-5.6,0.5-8.9,4.6c0,0-2.4-2.5-4.1-2.3l-1.8,2v13.5l20.8,2.8L66.8,12.4z"/>
</g>
<g class="st0">
	<path class="st9" d="M11.7,34.2c0,0-3.3,0.9-4.9,3c0,0,1.4,2,3.1,2c0,0-1,0.1-1.1,1.5c0,0,1.1,1.9,2.4,2s4.3,6.6,4.3,6.6L17.2,37
		L11.7,34.2z"/>
	<path class="st9" d="M13.2,16.6c0,0-2.1-4.6-0.3-9.5c0,0,12.8,0.8,13,8.5c0,0,1.9-3.6,2.6-7.4c0,0,5.4,1.5,7.4,5.8
		c0,0,1.1-3.5,3.1-4.1c2-0.8,4.5,2.9,4.5,4.6s-6.4,13.2-6.4,13.2L26.9,29L13.2,16.6z"/>
</g>
<g class="st0">
	<path class="st10" d="M75.4,34.2c0,0,3.3,0.9,4.9,3c0,0-1.4,2-3.1,2c0,0,1,0.1,1.1,1.5c0,0-1.1,1.9-2.4,2s-4.3,6.6-4.3,6.6L69.9,37
		L75.4,34.2z"/>
	<path class="st10" d="M73.9,16.6c0,0,2.1-4.6,0.3-9.5c0,0-12.8,0.8-13,8.5c0,0-1.9-3.6-2.6-7.4c0,0-5.4,1.5-7.4,5.8
		c0,0-1.1-3.5-3.1-4.1c-2-0.8-4.5,2.9-4.5,4.6S50,27.7,50,27.7L60.2,29L73.9,16.6z"/>
</g>
<g class="st0">
	<polygon class="st8" points="20.6,60.3 31,65.2 31,74.5 27.8,70.7 21,70.7 23.8,68.2 17.5,68.2 21.2,64.5 15,64.5 17.5,62.1 	"/>
	<polygon class="st8" points="66.5,60.3 56.1,65.2 56.1,74.5 59.4,70.7 66.1,70.7 63.4,68.2 69.6,68.2 65.9,64.5 72.2,64.5 
		69.6,62.1 	"/>
</g>
<ellipse class="st11" cx="43.6" cy="41.5" rx="31.7" ry="26.6"/>
<path class="st12" d="M43.6,14.9c17.6,0,31.7,11.9,31.7,26.6S61.1,68.1,43.6,68.1"/>
<ellipse class="st13" cx="43.6" cy="61.8" rx="16.4" ry="12.4"/>
<ellipse class="st14" cx="43.6" cy="57.8" rx="16.4" ry="12.4"/>
<path class="st15" d="M43.6,45.4c9,0,16.4,5.5,16.4,12.4s-7.4,12.4-16.4,12.4"/>
<ellipse class="st16" cx="43.6" cy="54.3" rx="14.5" ry="8.7"/>
<path class="st17" d="M43.6,45.7c8,0,14.5,3.9,14.5,8.7S51.6,63,43.6,63"/>
<ellipse class="st12" cx="43.6" cy="53.3" rx="14.5" ry="5.9"/>
<path class="st18" d="M43.6,47.4c8,0,14.5,2.6,14.5,5.9c0,3.3-6.5,5.9-14.5,5.9"/>
<path class="st13" d="M34.9,45.4c0,0-4-4.8-13.9,5.1c-8.3,8.1-15.2-2.4-11.9-7.1c0,0-0.4-3.6-3.1,4.1C3.3,55.3,8.2,64.3,19.4,62
	c11.3-2.5,12.5-6,18.6-5.3s5.4-4.4,5.6-5.5c0.3-1.1,0-7,0-7L34.9,45.4z"/>
<path class="st19" d="M19.4,62c11.3-2.5,12.5-6,18.6-5.3c6,0.8,5.4-4.4,5.6-5.5c0.3-1.1,0-7,0-7l-8.7,1.4"/>
<path class="st18" d="M5.3,10.9c0,0-3,22.8,10.7,28.1l-2.5,2.9h6.3v4.3l7.5-7.5c0,0,11.8-9.7-2.5-19.1C14.5,12.9,5.3,10.9,5.3,10.9z
	"/>
<path class="st13" d="M5.3,10.9c0,0-3,22.8,10.7,28.1l-2.5,2.9h6.3v4.3l7.5-7.5c0,0,9.5-9.8-4.8-19.2C12.3,12.7,5.3,10.9,5.3,10.9z"
	/>
<path class="st19" d="M19.7,41.9v4.3l7.5-7.5c0,0,9.5-9.8-4.8-19.2C12.2,12.7,5.2,11,5.2,11"/>
<path class="st16" d="M36.3,35.7c0,4.6-3.9,8.5-8.7,8.5S19,40.5,19,35.7c0-4.6,3.9-9.7,8.7-9.7C32.4,26.2,36.3,31.1,36.3,35.7z"/>
<ellipse class="st18" cx="27.5" cy="35.7" rx="8.7" ry="8.5"/>
<path class="st13" d="M21.4,29.7c3.4-3.3,8.9-3.3,12.3,0s3.4,8.7,0,12"/>
<ellipse class="st16" cx="27.5" cy="35.7" rx="6.8" ry="6.5"/>
<path class="st14" d="M27.5,29.2c3.8,0,6.8,2.9,6.8,6.5s-3,6.5-6.8,6.5"/>
<ellipse class="st19" cx="27.5" cy="35.7" rx="3.5" ry="3.4"/>
<path class="st20" d="M27.5,32.4c1.9,0,3.5,1.5,3.5,3.4s-1.5,3.4-3.5,3.4"/>
<g class="st0">
	<ellipse class="st21" cx="25.8" cy="34" rx="1.1" ry="1"/>
	<ellipse class="st21" cx="28.9" cy="36.7" rx="0.6" ry="0.6"/>
</g>
<g class="st0">
	<ellipse class="st22" cx="9.1" cy="17.7" rx="1.4" ry="1.4"/>
	<ellipse class="st22" cx="11.3" cy="21" rx="0.6" ry="0.6"/>
	<circle class="st22" cx="13" cy="22.8" r="0.3"/>
	<path class="st22" d="M16.5,21c0,0,4.1,5.6-0.9,6.4s-5.1,5.1-2.1,6.9c3,1.6,4.9-2.6,3-3.3c0,0,0.1,3-2.8,1.5
		c-2.9-1.6-1.1-5.1,4.1-4.8c5.3,0.5,4.8-3.3,2.6-5C18.4,20.8,16.5,21,16.5,21z"/>
</g>
<path class="st23" d="M36.4,44.5c-0.3,0-0.4,0-0.6,0c-4.3,0-7.8,2.4-7.8,6.1h11.5c1.1,0,2.6,1,3.9,1V37.8
	C39.8,37.8,36.5,40.8,36.4,44.5z"/>
<path class="st13" d="M52.2,45.4c0,0,4-4.8,13.9,5.1c8.3,8.1,15.2-2.4,11.8-7.1c0,0,0.4-3.6,3.1,4.1S78.9,64.3,67.6,62
	c-11.3-2.5-12.5-6-18.6-5.3s-5.4-4.4-5.6-5.5c-0.3-1.1,0-7,0-7L52.2,45.4z"/>
<path class="st19" d="M67.8,62c-11.3-2.5-12.5-6-18.6-5.3c-6,0.8-5.4-4.4-5.6-5.5c-0.3-1.1,0-7,0-7l8.7,1.4"/>
<path class="st18" d="M81.8,10.9c0,0,3,22.8-10.7,28.1l2.5,2.9h-6.3v4.3l-7.5-7.5c0,0-11.8-9.7,2.5-19.1
	C72.7,12.9,81.8,10.9,81.8,10.9z"/>
<path class="st13" d="M81.8,10.9c0,0,3,22.8-10.7,28.1l2.5,2.9h-6.3v4.3l-7.5-7.5c0,0-9.5-9.8,4.8-19.2
	C74.8,12.7,81.8,10.9,81.8,10.9z"/>
<path class="st19" d="M67.4,41.9v4.3l-7.5-7.5c0,0-9.5-9.8,4.8-19.2C75,12.7,81.9,11,81.9,11"/>
<path class="st16" d="M50.8,35.7c0,4.6,3.9,8.5,8.7,8.5s8.7-3.8,8.7-8.5c0-4.6-3.9-9.7-8.7-9.7C54.7,26.2,50.8,31.1,50.8,35.7z"/>
<ellipse class="st18" cx="59.6" cy="35.7" rx="8.7" ry="8.5"/>
<path class="st13" d="M65.8,29.7c-3.4-3.3-8.9-3.3-12.3,0s-3.4,8.7,0,12"/>
<ellipse class="st16" cx="59.6" cy="35.7" rx="6.8" ry="6.5"/>
<path class="st14" d="M59.6,29.2c-3.8,0-6.8,2.9-6.8,6.5s3,6.5,6.8,6.5"/>
<ellipse class="st19" cx="59.6" cy="35.7" rx="3.5" ry="3.4"/>
<path class="st20" d="M59.6,32.4c-1.9,0-3.5,1.5-3.5,3.4s1.5,3.4,3.5,3.4"/>
<g class="st0">
	<ellipse class="st21" cx="61.4" cy="34" rx="1.1" ry="1"/>
	<ellipse class="st21" cx="58.2" cy="36.7" rx="0.6" ry="0.6"/>
</g>
<g class="st0">
	<ellipse class="st22" cx="78" cy="17.7" rx="1.4" ry="1.4"/>
	<ellipse class="st22" cx="75.8" cy="21" rx="0.6" ry="0.6"/>
	<circle class="st22" cx="74.2" cy="22.8" r="0.3"/>
	<path class="st22" d="M70.6,21c0,0-4.1,5.6,0.9,6.4s5.1,5.1,2.1,6.9c-3,1.6-4.9-2.6-3-3.3c0,0-0.1,3,2.8,1.5
		c2.9-1.6,1.1-5.1-4.1-4.8c-5.3,0.5-4.8-3.3-2.6-5C68.8,20.8,70.6,21,70.6,21z"/>
</g>
<path class="st23" d="M50.7,44.5c0.3,0,0.4,0,0.6,0c4.3,0,7.8,2.4,7.8,6.1H47.6c-1.1,0-2.6,1-3.9,1V37.8
	C47.3,37.8,50.6,40.8,50.7,44.5z"/>
<path class="st14" d="M56.4,50.7L43.6,37.8l0,0l0,0l0,0l0,0L30.8,50.7h8.9c1.1,0,2.6,1,3.9,1l0,0l0,0l0,0l0,0c1.3,0,2.8-1,3.9-1
	H56.4z"/>
<g class="st0">
	<ellipse class="st24" cx="43.6" cy="42" rx="0.9" ry="0.9"/>
	<ellipse class="st24" cx="43.6" cy="45.4" rx="0.9" ry="0.9"/>
	<ellipse class="st24" cx="43.6" cy="48.8" rx="0.9" ry="0.9"/>
</g>
<path class="st23" d="M51.3,28.7c0,4.3-3.5,7.6-7.8,7.6s-7.8-3.4-7.8-7.6s3.5-15,7.8-15S51.3,24.6,51.3,28.7z"/>
<path class="st16" d="M43.6,13.8c4.4,0,7.8,10.8,7.8,15s-3.5,7.6-7.8,7.6"/>
<g class="st0">
	<path class="st8" d="M40.3,30.6c-0.5,0-0.9-0.1-0.9-0.6l0,0c0-0.5,0.4-0.6,0.9-0.6h6.5c0.5,0,0.9,0.1,0.9,0.6l0,0
		c0,0.5-0.4,0.6-0.9,0.6H40.3z"/>
	<path class="st8" d="M42.9,26.7c0-0.5,0.1-0.9,0.6-0.9l0,0c0.5,0,0.6,0.4,0.6,0.9v6.5c0,0.5-0.1,0.9-0.6,0.9l0,0
		c-0.5,0-0.6-0.4-0.6-0.9V26.7z"/>
	<ellipse class="st8" cx="40.4" cy="26.8" rx="0.8" ry="0.8"/>
	<ellipse class="st8" cx="46.7" cy="26.8" rx="0.8" ry="0.8"/>
	<ellipse class="st8" cx="40.4" cy="33.2" rx="0.8" ry="0.8"/>
	<ellipse class="st8" cx="46.7" cy="33.2" rx="0.8" ry="0.8"/>
</g>
<g class="st0">
	<ellipse class="st25" cx="43.4" cy="19.3" rx="0.5" ry="0.5"/>
	<path class="st25" d="M43.6,17.9c-1.5,0-2.8,1.1-2.8,2.6s1.3,2.6,2.8,2.6s2.8-1.1,2.8-2.6S45.1,17.9,43.6,17.9z M43.4,22.3
		c-0.3,0-0.5-0.3-0.5-0.5s0.3-0.5,0.5-0.5s0.5,0.3,0.5,0.5C43.9,22.2,43.7,22.3,43.4,22.3z M43.6,20.6c-0.6,0.3-1.3,0.4-1.3,1.3
		c0,0.6,0.5,1.3,1.3,1.3c-1.4,0-2.5-1.1-2.5-2.4c0-1.4,1.1-2.4,2.5-2.4c0.6,0,1.3,0.5,1.3,1.3C44.8,20.2,44.2,20.3,43.6,20.6z"/>
</g>
<g class="st0">
	<polygon class="st8" points="14.9,44 20.1,49.2 17.6,51.5 	"/>
	<polygon class="st8" points="72.3,44 67,49.2 69.5,51.5 	"/>
</g>
<g class="st0">
	<path class="st26" d="M25.3,12.8c0,0-0.8,4.3,2.9,4.4c3.8,0,4.8,1.4,4.8,2.8s-1.4,2.8-3.1,1.4s-0.3-2.9,1.5-1.8
		c0,0-1.1-1.3-2.3-0.4s0.9,3.6,3.1,2.6c2.4-1,0.8-5.5-2.8-6.3s-4-3-3.3-3.9c0.8-0.9,3,1,1.5,1.9c0,0,2.4-1.1,0.4-2.4
		c-2.3-1.4-2.5-0.1-2.6,0.5C25.4,12.2,25.3,12.8,25.3,12.8z"/>
	<circle class="st26" cx="34" cy="22" r="0.1"/>
	<path class="st26" d="M35.8,22.8c0.1,0.3,0,0.5-0.3,0.5c-0.3,0.1-0.5,0-0.5-0.3s0-0.5,0.3-0.5C35.4,22.6,35.7,22.6,35.8,22.8z"/>
	<circle class="st26" cx="36.5" cy="23.5" r="0.1"/>
	<circle class="st26" cx="37.7" cy="24" r="0.1"/>
	<circle class="st26" cx="31.3" cy="20.3" r="0.3"/>
	<path class="st26" d="M27.6,12.7c0.1,0.3,0,0.4-0.3,0.5s-0.4,0-0.5-0.3s0-0.4,0.3-0.5C27.4,12.3,27.6,12.4,27.6,12.7z"/>
	<path class="st26" d="M28.6,14.1c0,0,0.8-0.4,0.8-1.6c0,0,0.9,1.1,0.1,1.5C28.9,14.2,28.6,14.1,28.6,14.1z"/>
	<path class="st26" d="M29.4,14.6l0.9-0.5c0,0-0.1,0.8-0.4,0.6C29.8,14.7,29.4,14.6,29.4,14.6z"/>
	<path class="st26" d="M34.7,11.7c0,0.1,0,0.1-0.1,0.3L32,12.7c-0.1,0-0.1,0-0.3-0.1l0,0c0-0.1,0-0.1,0.1-0.3l2.5-0.8
		C34.5,11.5,34.7,11.7,34.7,11.7L34.7,11.7z"/>
	<path class="st26" d="M35.2,13.1c0,0.1,0,0.1-0.1,0.1L32.6,14c-0.1,0-0.1,0-0.3-0.1l0,0c0-0.1,0-0.1,0.1-0.3l2.5-0.8
		C35,12.9,35.2,12.9,35.2,13.1L35.2,13.1z"/>
	<path class="st26" d="M35.8,14.3c0,0.1,0,0.1-0.1,0.3L33,15.3c-0.1,0-0.1,0-0.3-0.1l0,0c0-0.1,0-0.1,0.1-0.3l2.5-0.8
		C35.7,14.2,35.8,14.3,35.8,14.3L35.8,14.3z"/>
	<path class="st26" d="M36.3,15.7c0,0.1,0,0.1-0.1,0.3l-2.5,0.8c-0.1,0-0.1,0-0.3-0.1l0,0c0-0.1,0-0.1,0.1-0.3l2.5-0.8
		C36.2,15.6,36.3,15.6,36.3,15.7L36.3,15.7z"/>
	<path class="st26" d="M61.9,12.8c0,0,0.8,4.3-2.9,4.4c-3.8,0-4.8,1.4-4.8,2.8s1.4,2.8,3.1,1.4s0.3-2.9-1.6-1.8c0,0,1.1-1.3,2.3-0.4
		c1.1,0.9-0.9,3.6-3.1,2.6c-2.4-1-0.8-5.5,2.8-6.3s4-3,3.3-3.9c-0.8-0.9-3,1-1.5,1.9c0,0-2.4-1.1-0.4-2.4c2.3-1.4,2.5-0.1,2.6,0.5
		C61.7,12.2,61.9,12.8,61.9,12.8z"/>
	<circle class="st26" cx="53.1" cy="22" r="0.1"/>
	<ellipse class="st26" cx="51.7" cy="23" rx="0.4" ry="0.4"/>
	<circle class="st26" cx="50.6" cy="23.5" r="0.1"/>
	<path class="st26" d="M49.3,23.8c0,0,0,0.1,0.1,0.1c0,0,0.1,0,0.1-0.1c0,0,0-0.1-0.1-0.1C49.5,23.8,49.5,23.8,49.3,23.8z"/>
	<circle class="st26" cx="55.9" cy="20.3" r="0.3"/>
	<path class="st26" d="M59.5,12.7c-0.1,0.3,0,0.4,0.3,0.5s0.4,0,0.5-0.3s0-0.4-0.3-0.5C59.7,12.3,59.5,12.4,59.5,12.7z"/>
	<path class="st26" d="M58.5,14.1c0,0-0.8-0.4-0.8-1.6c0,0-0.9,1.1-0.1,1.5C58.2,14.2,58.5,14.1,58.5,14.1z"/>
	<path class="st26" d="M57.7,14.6l-0.9-0.5c0,0,0.1,0.8,0.4,0.6C57.4,14.7,57.7,14.6,57.7,14.6z"/>
	<path class="st26" d="M52.5,11.7c0,0.1,0,0.1,0.1,0.3l2.5,0.8c0.1,0,0.1,0,0.3-0.1l0,0c0-0.1,0-0.1-0.1-0.3l-2.5-0.8
		C52.6,11.5,52.5,11.7,52.5,11.7L52.5,11.7z"/>
	<path class="st26" d="M52,13.1c0,0.1,0,0.1,0.1,0.1l2.5,0.8c0.1,0,0.1,0,0.3-0.1l0,0c0-0.1,0-0.1-0.1-0.3l-2.5-0.8
		C52.1,12.9,52,12.9,52,13.1L52,13.1z"/>
	<path class="st26" d="M51.3,14.3c0,0.1,0,0.1,0.1,0.3l2.6,0.8c0.1,0,0.1,0,0.3-0.1l0,0c0-0.1,0-0.1-0.1-0.3l-2.5-0.8
		C51.5,14.2,51.3,14.3,51.3,14.3L51.3,14.3z"/>
	<path class="st26" d="M50.8,15.7c0,0.1,0,0.1,0.1,0.3l2.5,0.8c0.1,0,0.1,0,0.3-0.1l0,0c0-0.1,0-0.1-0.1-0.3l-2.5-0.8
		C51,15.6,50.8,15.6,50.8,15.7L50.8,15.7z"/>
</g>
<text transform="matrix(1.0744 0 0 1 93.8999 60.4497)" class="st27 st28 st29">Pig Finance</text>
<g class="st0">
	<g class="st1">
		<path class="st30" d="M104.3,4.1c4.7-0.8,11-1.2,17.5-1.2c10.6,0,17.2,1.7,22.7,5.5c6.1,4.2,10,11.1,10,21.2
			c0,11.2-4.3,18.5-9.6,22.7c-6.1,4.7-15.1,6.8-25.9,6.8c-7.1,0-11.9-0.5-14.7-0.9C104.3,58.2,104.3,4.1,104.3,4.1z M119.1,47.5
			c0.8,0.2,2.1,0.2,3.1,0.2c9.6,0.1,16.7-5.1,16.7-17.6c0-10.8-6.4-15.9-15.3-15.9c-2.3,0-3.7,0.2-4.5,0.4
			C119.1,14.6,119.1,47.5,119.1,47.5z"/>
		<path class="st30" d="M161.9,31.8c0-6.4-0.1-10.2-0.3-13.6h12.6l0.5,7.3h0.3c2.1-6.1,7.2-8.2,10.7-8.2c1.3,0,1.9,0,2.9,0.2v13.9
			c-1.1-0.2-2.2-0.4-3.8-0.4c-4.4,0-7.3,1.8-8.1,5.1c-0.1,0.7-0.2,1.6-0.2,2.5v19.9h-14.8V31.8H161.9z"/>
		<path class="st30" d="M218,58.5l-0.8-3.5H217c-2.8,3.2-6.8,4.4-11.2,4.4c-8.2,0-13.3-5.9-13.3-12.6c0-10.8,9.7-15.6,23.4-15.6
			v-0.4c0-1.7-1.2-3.4-6.6-3.4c-4.3,0-8.7,1.5-11.4,3l-2.6-9.4c2.6-1.4,8.3-3.6,16.7-3.6c13.9,0,18.6,7.7,18.6,17.8v13.6
			c0,4,0.2,7.8,0.7,9.8H218V58.5z M216.3,40.1c-6,0-9.4,1.7-9.4,5.2c0,2.6,1.7,3.9,4.2,3.9c2.1,0,4.4-1.5,5.1-3.7
			c0.2-0.6,0.2-1.4,0.2-2.1v-3.3C216.4,40.1,216.3,40.1,216.3,40.1z"/>
		<path class="st30" d="M279.7,18.3c-0.2,2.5-0.3,6-0.3,12.4v22c0,7.1-1.4,13.7-6.3,18c-4.6,3.9-10.7,5-17,5c-5.5,0-11.2-1.1-14.9-3
			l2.8-11.1c2.5,1.4,7,2.9,11.6,2.9c5.3,0,9.4-2.8,9.4-9.1v-1.8h-0.2c-2.4,3.1-6.1,4.5-10,4.5c-9.9,0-17-7.9-17-19.6
			c0-12.7,8.1-21.2,18.3-21.2c4.9,0,8.2,1.9,10.4,5.2h0.2l0.5-4.3L279.7,18.3L279.7,18.3z M264.6,34.9c0-0.6-0.1-1.4-0.2-1.9
			c-0.7-2.9-2.6-4.6-5.2-4.6c-3.5,0-6.6,3.4-6.6,9.8c0,5.2,2.5,9.1,6.6,9.1c2.7,0,4.6-1.8,5.1-4c0.2-0.9,0.3-2.1,0.3-3.1L264.6,34.9
			L264.6,34.9z"/>
		<path class="st30" d="M329.6,38c0,14.6-10.5,21.4-21.7,21.4c-12.1,0-21.4-7.7-21.4-20.7c0-12.8,8.5-21.3,22.2-21.3
			C321.2,17.4,329.6,25.9,329.6,38z M301.7,38.4c0,6,2,10.6,6.5,10.6c4,0,6.1-4.2,6.1-10.6c0-5.6-1.8-10.6-6.2-10.6
			C303.3,27.8,301.7,33.1,301.7,38.4z"/>
		<path class="st30" d="M336.7,32c0-5.4-0.2-10-0.3-13.7h12.7l0.7,5.1h0.3c1.5-2.1,5.3-6,12.1-6c9.4,0,14.5,6.4,14.5,17.4v23.8
			h-14.8v-22c0-4.6-1.6-7.4-5.1-7.4c-2.9,0-4.2,2-4.8,3.5c-0.3,0.7-0.4,1.9-0.4,3v22.8h-14.8V32H336.7z"/>
		<path class="st30" d="M402.5,3.4h35.4v12.1h-20.6v10.2h19.4v11.9h-19.4v21h-14.8V3.4z"/>
		<path class="st30" d="M461.4,7.2c0,3.9-2.9,7-7.6,7c-4.5,0-7.4-3.1-7.4-7c0-4,2.9-7,7.5-7C458.5,0.2,461.4,3.1,461.4,7.2z
			 M446.5,58.5V18.3h14.8v40.3L446.5,58.5L446.5,58.5z"/>
		<path class="st30" d="M470.4,31.8c0-6.4-0.1-10.2-0.3-13.6h12.6l0.5,7.3h0.3c2.1-6.1,7.2-8.2,10.7-8.2c1.3,0,1.9,0,2.9,0.2v13.9
			c-1.1-0.2-2.2-0.4-3.8-0.4c-4.4,0-7.3,1.8-8.1,5.1c-0.1,0.7-0.2,1.6-0.2,2.5v19.9h-14.8V31.8H470.4z"/>
		<path class="st30" d="M515.4,43.6c0.5,3.2,5.1,5,10.3,5c3.8,0,7.4-0.4,11-1.6l1.9,9.9c-4.8,1.9-10.1,2.5-15.1,2.5
			c-14.2,0-22.2-7.8-22.2-20.6c0-9.4,6-21.5,20.9-21.5c13,0,18.6,9.6,18.6,20.6c0,2.5-0.3,4.6-0.5,5.6L515.4,43.6L515.4,43.6z
			 M527.3,33.6c0-2.3-1.1-6.6-5.7-6.6c-4.4,0-6.1,4-6.3,6.6H527.3z"/>
	</g>
</g>
<path class="st31" d="M11.2,68.9c0,4.8,12.5,8.7,27.9,8.7S67,73.7,67,68.9l-7-40c0-3.8-9.4-7-20.9-7s-20.9,3.1-20.9,7L11.2,68.9z"/>
<ellipse class="st32" cx="39" cy="34.1" rx="38.3" ry="15.7"/>
<path class="st33" d="M64.2,53.2l-1.2-7c-6.3,2.1-14.5,3.5-23.9,3.5H39l0,0h-0.1l0,0h-0.1l0,0l0,0l0,0l0,0l0,0l0,0l0,0l0,0l0,0l0,0
	l0,0l0,0l0,0l0,0l0,0l0,0l0,0l0,0l0,0l0,0l0,0l0,0l0,0l0,0l0,0l0,0l0,0l0,0l0,0l0,0l0,0l0,0l0,0l0,0l0,0l0,0l0,0l0,0l0,0l0,0l0,0
	h-0.1l0,0l0,0l0,0h-0.1l0,0l0,0l0,0h-0.1l0,0l0,0l0,0h-0.1l0,0c-1.4,0-2.7-0.1-4-0.2c-0.1,0-0.1,0-0.2,0c-1.9,0-3.5,1.6-3.5,3.5
	c0,1.8,1.4,3.4,3.3,3.5c2,0.1,4.1,0.2,6.1,0.2C48.6,56.7,57.1,55.5,64.2,53.2L64.2,53.2z"/>
<path class="st34" d="M39,18.4c-23,0-38.3,8.1-38.3,15.7c0,3.8,3.8,7.7,10.4,10.6c0-0.1,0-0.1,0-0.2c0-6.7,5.5-12.2,12.2-12.2h31.3
	c6.7,0,12.2,5.5,12.2,12.2c0,0.1,0,0.1,0,0.2c6.6-3,10.4-6.9,10.4-10.6C77.3,26.5,62,18.4,39,18.4L39,18.4z"/>
<path class="st35" d="M75.6,35.7L75.6,35.7c1,0,1.8-0.8,1.7-1.8l0,0c0-1-0.3-2.1-0.9-3l0,0c0-0.1-0.1-0.1-0.1-0.2l0,0l0,0l0,0
	c0-0.1-0.1-0.1-0.1-0.2l0,0l0,0l0,0l0,0l0,0l-0.1-0.1l0,0l0,0l0,0l0,0l0,0l0,0l0,0l0,0l0,0l0,0l0,0L76,30.3l0,0l0,0l0,0l0,0l0,0l0,0
	l0,0l0,0l0,0l0,0l0,0l0,0l0,0c0,0,0-0.1-0.1-0.1l0,0l0,0l0,0l0,0l0,0l0,0l0,0l0,0l0,0l0,0l0,0l0,0l0,0l0,0c0,0,0-0.1-0.1-0.1l0,0
	l0,0l0,0l0,0l0,0l0,0l0,0l0,0l0,0l0,0l0,0l0,0c0,0,0-0.1-0.1-0.1l0,0l0,0l0,0l0,0l0,0l0,0l0,0l0,0l0,0l0,0l0,0l0,0l0,0l0,0l0,0l0,0
	l0,0c0,0,0,0-0.1-0.1l0,0l0,0l0,0l0,0l0,0l0,0l0,0l0,0l0,0l0,0l0,0l0,0l0,0l0,0l0,0l0,0l0,0l0,0l0,0l0,0l0,0l0,0l0,0l0,0l0,0l0,0
	l0,0l0,0l0,0l0,0l0,0l0,0l0,0l0,0l0,0l0,0l0,0l0,0l0,0l0,0l0,0l0,0l0,0c0,0,0,0,0-0.1l0,0l0,0l0,0l0,0l0,0l0,0l0,0l0,0l0,0l0,0l0,0
	l0,0l0,0l0,0l0,0l0,0l0,0l0,0l0,0c0,0,0,0-0.1-0.1l0,0l0,0l0,0l0,0l0,0l0,0l0,0l0,0l0,0l0,0l0,0l0,0l0,0l0,0l0,0l0,0l0,0l0,0l0,0
	l0,0c0,0,0,0-0.1-0.1l0,0l0,0l0,0l0,0l0,0l0,0l0,0l0,0l0,0l0,0l0,0l0,0l0,0l0,0l0,0l0,0l0,0l0,0l0,0c0,0,0,0-0.1-0.1l0,0l0,0l0,0
	l0,0l0,0l0,0l0,0l0,0l0,0l0,0l0,0l0,0l0,0l0,0l0,0l0,0l0,0l0,0l0,0l0,0l0,0c0,0,0,0-0.1-0.1l0,0l0,0l0,0l0,0l0,0l0,0l0,0l0,0l0,0
	l0,0l0,0l0,0l0,0l0,0l0,0l0,0l0,0l-0.1-0.1l0,0l0,0l0,0l0,0l0,0l0,0l0,0l0,0l0,0l0,0l0,0l0,0l0,0l0,0l0,0l0,0l0,0l0,0l0,0
	c0,0,0,0-0.1-0.1l0,0l0,0l0,0l0,0l0,0l0,0l0,0l0,0l0,0l0,0l0,0l0,0l0,0l0,0l0,0l0,0l0,0l0,0l0,0l0,0l0,0l0,0l0,0l0,0l0,0l0,0l0,0
	l0,0l0,0l0,0l0,0l0,0l0,0l0,0l0,0l0,0l0,0l0,0l0,0l0,0l0,0l0,0l0,0l0,0l0,0c0,0,0,0-0.1-0.1l0,0l0,0l0,0l0,0l0,0l0,0l0,0l0,0l0,0
	l0,0l0,0l0,0l0,0l0,0l0,0l0,0l0,0l0,0l0,0l0,0l0,0c0,0,0,0-0.1-0.1l0,0l0,0l0,0l0,0l0,0l0,0l0,0l0,0l0,0l0,0l0,0l0,0l0,0l0,0l0,0
	l0,0l0,0l0,0l0,0l0,0l0,0l0,0l0,0c0,0,0,0-0.1,0l0,0l0,0l0,0l0,0l0,0l0,0l0,0l0,0l0,0l0,0l0,0l0,0l0,0l0,0l0,0l0,0l0,0l0,0l0,0l0,0
	l0,0l0,0l0,0l0,0l0,0h-0.1l0,0l0,0l0,0l0,0l0,0l0,0l0,0l0,0l0,0l0,0l0,0l0,0l0,0l0,0l0,0l0,0l0,0l0,0l0,0l0,0l0,0l0,0l0,0l0,0l0,0
	l0,0l0,0l0,0l0,0l0,0l0,0l0,0l0,0l0,0l0,0l0,0l0,0l0,0l0,0l0,0l0,0l0,0l0,0l0,0l0,0l0,0l0,0l0,0l0,0l0,0l0,0l0,0l0,0l0,0l0,0l0,0
	l0,0l0,0l0,0l0,0l0,0l0,0l0,0l0,0l0,0l0,0l0,0l0,0l0,0l0,0l0,0l0,0l0,0l0,0l0,0l0,0l0,0l0,0l0,0l0,0l0,0l0,0l0,0l0,0l0,0l0,0l0,0
	l0,0l0,0l0,0l0,0l0,0l0,0l0,0l0,0l0,0l0,0l0,0l0,0l0,0l0,0l0,0l0,0l0,0l0,0l0,0l0,0l0,0l0,0l0,0l0,0l0,0l0,0l0,0l0,0l0,0l0,0l0,0
	l0,0l0,0l0,0l0,0l0,0l0,0l0,0l0,0l0,0l0,0l0,0l0,0l0,0l0,0l0,0l0,0l0,0l0,0l0,0l0,0l0,0l0,0c0,0,0,0-0.1,0l0,0l0,0l0,0l0,0l0,0l0,0
	l0,0l0,0l0,0l0,0l0,0l0,0l0,0l0,0l0,0l0,0l0,0l0,0l0,0l0,0l0,0l0,0l0,0c0,0,0,0-0.1,0l0,0l0,0l0,0l0,0l0,0l0,0l0,0l0,0l0,0l0,0l0,0
	l0,0l0,0l0,0l0,0l0,0l0,0l0,0l0,0l0,0l0,0l0,0l0,0c0,0-0.1,0-0.1-0.1l0,0l0,0l0,0l0,0l0,0l0,0l0,0l0,0l0,0l0,0l0,0l0,0l0,0l0,0l0,0
	l0,0l0,0l0,0l0,0l0,0l0,0c0,0-0.1,0-0.1-0.1l0,0l0,0l0,0l0,0l0,0l0,0l0,0l0,0l0,0l0,0l0,0l0,0l0,0l0,0l0,0l0,0l0,0l-0.1-0.1l0,0l0,0
	l0,0l0,0l0,0l0,0l0,0l0,0l0,0l0,0l0,0l0,0l0,0l0,0l0,0l0,0l0,0c-0.1,0-0.1-0.1-0.2-0.1l0,0l0,0l0,0l0,0l0,0
	c-1.9-1.1-3.8-2.1-5.8-2.9c-0.9-0.3-1.9,0.1-2.3,1c-0.3,0.9,0.1,1.9,1,2.3c6.8,2.7,9.9,6,10,8.1C73.9,35,74.7,35.7,75.6,35.7
	L75.6,35.7z M39,49.8L39,49.8C39.1,49.8,39.1,49.8,39,49.8L39,49.8L39,49.8L39,49.8L39,49.8L39,49.8L39,49.8L39,49.8L39,49.8
	L39,49.8L39,49.8L39,49.8L39,49.8L39,49.8L39,49.8L39,49.8L39,49.8L39,49.8L39,49.8L39,49.8L39,49.8L39,49.8L39,49.8L39,49.8
	L39,49.8L39,49.8L39,49.8L39,49.8L39,49.8L39,49.8L39,49.8L39,49.8L39,49.8L39,49.8L39,49.8L39,49.8L39,49.8L39,49.8L39,49.8
	L39,49.8L39,49.8L39,49.8L39,49.8L39,49.8L39,49.8L39,49.8L39,49.8L39,49.8L39,49.8L39,49.8L39,49.8L39,49.8L39,49.8L39,49.8
	L39,49.8L39,49.8L39,49.8L39,49.8L39,49.8L39,49.8L39,49.8L39,49.8L39,49.8L39,49.8L39,49.8L39,49.8L39,49.8L39,49.8L39,49.8
	L39,49.8L39,49.8L39,49.8L39,49.8L39,49.8L39,49.8L39,49.8L39,49.8L39,49.8L39,49.8L39,49.8L39,49.8L39,49.8L39,49.8L39,49.8
	L39,49.8L39,49.8L39,49.8L39,49.8L39,49.8L39,49.8L39,49.8L39,49.8L39,49.8L39,49.8L39,49.8L39,49.8L39,49.8L39,49.8L39,49.8
	L39,49.8L39,49.8L39,49.8L39,49.8L39,49.8L39,49.8L39,49.8L39,49.8L39,49.8L39,49.8L39,49.8L39,49.8L39,49.8L39,49.8L39,49.8
	L39,49.8L39,49.8L39,49.8L39,49.8L39,49.8L39,49.8L39,49.8L39,49.8L39,49.8L39,49.8L39,49.8L39,49.8L39,49.8L39,49.8L39,49.8
	L39,49.8L39,49.8L39,49.8L39,49.8L39,49.8L39,49.8L39,49.8L39,49.8L39,49.8L39,49.8L39,49.8L39,49.8L39,49.8L39,49.8L39,49.8
	L39,49.8L39,49.8L39,49.8L39,49.8L39,49.8L39,49.8L39,49.8L39,49.8L39,49.8L39,49.8L39,49.8L39,49.8L39,49.8L39,49.8L39,49.8
	L39,49.8L39,49.8L39,49.8L39,49.8L39,49.8L39,49.8L39,49.8L39,49.8L39,49.8L39,49.8L39,49.8L39,49.8L39,49.8L39,49.8L39,49.8
	L39,49.8L39,49.8L39,49.8L39,49.8L39,49.8L39,49.8L39,49.8L39,49.8L39,49.8L39,49.8L39,49.8L39,49.8L39,49.8h0.2l0,0l0,0l0,0l0,0
	l0,0l0,0l0,0l0,0l0,0l0,0l0,0l0,0l0,0l0,0l0,0l0,0l0,0l0,0l0,0h0.1l0,0l0,0l0,0l0,0l0,0l0,0l0,0l0,0l0,0l0,0l0,0l0,0l0,0l0,0l0,0
	l0,0l0,0l0,0l0,0l0,0l0,0l0,0l0,0l0,0l0,0l0,0l0,0l0,0l0,0l0,0l0,0l0,0l0,0l0,0l0,0l0,0l0,0l0,0l0,0h0.1l0,0l0,0l0,0l0,0l0,0l0,0
	l0,0l0,0l0,0l0,0l0,0l0,0l0,0c0.1,0,0.1,0,0.2,0l0,0l0,0l0,0l0,0l0,0l0,0l0,0l0,0l0,0l0,0l0,0l0,0l0,0l0,0l0,0h0.1l0,0l0,0l0,0l0,0
	l0,0l0,0l0,0l0,0l0,0l0,0l0,0l0,0l0,0l0,0l0,0c0.1,0,0.1,0,0.2,0l0,0l0,0l0,0l0,0l0,0l0,0l0,0l0,0l0,0l0,0l0,0l0,0l0,0
	c0.1,0,0.1,0,0.2,0l0,0l0,0l0,0l0,0l0,0l0,0l0,0l0,0l0,0l0,0l0,0l0,0l0,0c0.1,0,0.1,0,0.2,0l0,0l0,0l0,0l0,0l0,0l0,0l0,0l0,0l0,0
	l0,0l0,0c0.1,0,0.1,0,0.2,0l0,0l0,0l0,0l0,0l0,0l0,0l0,0l0,0l0,0l0,0l0,0c0.1,0,0.1,0,0.2,0l0,0l0,0l0,0l0,0l0,0l0,0l0,0l0,0l0,0
	c0.1,0,0.2,0,0.3,0l0,0l0,0l0,0l0,0l0,0c5.5-0.5,10.4-1.4,14.6-2.7l0,0l0,0l0,0l0,0l0,0l0,0l0,0c0.1,0,0.1,0,0.2-0.1l0,0l0,0l0,0
	l0,0l0,0l0,0l0,0l0,0l0,0l0,0l0,0h0.1l0,0l0,0l0,0l0,0l0,0l0,0l0,0l0,0l0,0l0,0l0,0l0,0l0,0l0,0l0,0H56l0,0l0,0l0,0l0,0l0,0l0,0l0,0
	l0,0l0,0l0,0l0,0l0,0l0,0l0,0l0,0l0,0l0,0l0,0l0,0l0,0l0,0l0,0l0,0l0,0l0,0l0,0l0,0l0,0l0,0l0,0l0,0l0,0l0,0l0,0l0,0l0,0l0,0l0,0
	l0,0l0,0l0,0l0,0l0,0l0,0l0,0l0,0l0,0l0,0l0,0l0,0l0,0l0,0l0,0l0,0l0,0l0,0l0,0l0,0l0,0l0,0l0,0l0,0l0,0l0,0l0,0l0,0l0,0l0,0l0,0
	l0,0l0,0l0,0c0,0,0.1,0,0.1-0.1l0,0l0,0l0,0l0,0l0,0l0,0l0,0c1.8-0.6,3.6-1.4,5.3-2.2c0.9-0.4,1.2-1.5,0.8-2.3
	c-0.4-0.9-1.5-1.2-2.3-0.8l0,0c-6.8,3.5-17,5.5-28,5.5c-20.6,0-32.8-6.7-34.6-11.2c-0.4-0.9-1.4-1.3-2.3-1c-0.9,0.4-1.3,1.4-1,2.3
	c0.8,1.9,2.4,3.8,4.9,5.5l0,0l0.1,0.1l0,0l0.1,0.1l0,0l0,0l0,0l0,0l0,0c0,0,0.1,0,0.1,0.1l0,0l0,0l0,0l0,0l0,0c0,0,0.1,0,0.1,0.1
	l0,0l0,0l0,0l0,0l0,0l0,0l0,0l0,0l0,0h0.1l0,0l0,0l0,0l0,0l0,0l0,0l0,0l0,0l0,0c0,0,0,0,0.1,0l0,0l0,0l0,0l0,0l0,0l0,0l0,0l0,0l0,0
	l0,0l0,0c0,0,0,0,0.1,0l0,0l0,0l0,0l0,0l0,0l0,0l0,0c0,0,0.1,0,0.1,0.1l0,0l0,0l0,0l0,0l0,0l0,0l0,0l0,0l0,0c0,0,0,0,0.1,0l0,0l0,0
	l0,0l0,0l0,0l0,0l0,0l0,0l0,0l0,0l0,0l0,0l0,0l0,0l0,0l0,0l0,0l0,0l0,0l0,0l0,0l0,0l0,0l0,0l0,0c0,0,0,0,0.1,0l0,0l0,0l0,0l0,0l0,0
	l0,0l0,0l0,0l0,0l0,0l0,0l0,0l0,0l0,0l0,0l0,0l0,0l0,0l0,0l0,0l0,0l0,0l0,0l0,0l0,0l0,0l0,0l0,0l0,0l0,0l0,0l0,0l0,0l0,0l0,0l0,0
	l0,0l0,0l0,0l0,0l0,0l0,0l0,0l0,0l0,0l0,0l0,0l0,0l0,0l0,0l0,0l0,0l0,0l0,0l0,0l0,0l0,0l0,0l0,0l0,0l0,0l0,0l0,0l0,0l0,0l0,0l0,0
	l0,0l0,0l0,0l0,0l0,0l0,0l0,0l0,0l0,0l0,0l0,0l0,0l0,0l0,0l0,0l0,0l0,0l0,0l0,0l0,0l0,0l0,0l0,0l0,0l0,0l0,0l0,0l0,0l0,0l0,0l0,0
	l0,0l0,0l0,0l0,0l0,0l0,0l0,0l0,0l0,0l0,0l0,0l0,0l0,0l0,0l0,0l0,0l0,0l0,0l0,0l0,0l0,0l0,0l0,0l0,0l0,0l0,0l0,0l0,0l0,0l0,0l0,0
	l0,0l0,0l0,0l0,0l0,0l0,0l0,0l0,0l0,0l0,0l0,0l0,0l0,0l0,0c0,0,0,0,0.1,0l0,0l0,0l0,0l0,0l0,0l0,0l0,0l0,0l0,0l0,0l0,0l0,0l0,0l0,0
	l0,0l0,0l0,0l0,0l0,0l0,0l0,0l0,0l0,0l0,0l0,0l0,0l0,0l0,0l0,0l0,0l0,0l0,0l0,0l0,0l0,0l0,0l0,0l0,0l0,0l0,0l0,0l0,0l0,0l0,0l0,0
	l0,0l0,0l0,0l0,0l0,0l0,0l0,0l0,0l0,0l0,0l0,0l0,0l0,0l0,0l0,0l0,0l0,0l0,0l0,0l0,0l0,0l0,0l0,0l0,0l0,0l0,0l0,0l0,0l0,0l0,0l0,0
	l0,0l0,0l0,0l0,0l0,0l0,0l0,0l0,0l0,0l0,0l0,0l0,0l0,0l0,0l0,0l0,0l0,0l0,0l0,0l0,0l0,0l0,0l0,0l0,0l0,0l0,0l0,0l0,0l0,0l0,0l0,0
	l0,0l0,0l0,0l0,0l0,0l0,0l0,0l0,0l0,0l0,0l0,0l0,0l0,0l0,0l0,0l0,0l0,0l0,0l0,0l0,0l0,0l0,0l0,0l0,0l0,0l0,0l0,0l0,0l0,0l0,0l0,0
	l0,0l0,0l0,0l0,0l0,0l0,0l0,0l0,0l0,0l0,0l0,0l0,0l0,0l0,0l0,0l0,0l0,0l0,0l0,0l0,0l0,0l0,0l0,0l0,0l0,0l0,0l0,0l0,0l0,0l0,0l0,0
	l0,0l0,0l0,0l0,0l0,0l0,0l0,0l0,0l0,0l0,0l0,0l0,0l0,0l0,0l0,0l0,0l0,0l0,0l0,0l0,0l0,0l0,0l0,0l0,0l0,0l0,0l0,0l0,0l0,0l0,0l0,0
	l0,0l0,0l0,0l0,0l0,0l0,0l0,0l0,0l0,0l0,0l0,0l0,0l0,0l0,0l0,0l0,0l0,0l0,0l0,0l0,0l0,0l0,0l0,0l0,0l0,0l0,0l0,0l0,0l0,0l0,0l0,0
	l0,0c0,0,0,0,0.1,0l0,0l0,0l0,0l0,0l0,0l0,0l0,0l0,0l0,0l0,0l0,0l0,0l0,0l0,0l0,0l0,0l0,0l0,0l0,0l0,0l0,0l0,0l0,0l0,0l0,0l0,0l0,0
	l0,0l0,0l0,0l0,0l0,0l0,0l0,0l0,0l0,0l0,0l0,0l0,0l0,0l0,0l0,0l0,0l0,0l0,0l0,0l0,0l0,0l0,0l0,0l0,0l0,0l0,0l0,0l0,0l0,0l0,0l0,0
	l0,0l0,0l0,0l0,0l0,0l0,0l0,0l0,0l0,0l0,0l0,0l0,0l0,0l0,0l0,0l0,0l0,0l0,0l0,0l0,0l0,0l0,0l0,0l0,0l0,0l0,0l0,0l0,0l0,0l0,0l0,0
	l0,0l0,0l0,0l0,0l0,0l0,0l0,0l0,0l0,0l0,0l0,0l0,0l0,0l0,0l0,0l0,0l0,0l0,0l0,0l0,0l0,0l0,0l0,0l0,0l0,0l0,0l0,0l0,0l0,0l0,0l0,0
	l0,0l0,0l0,0l0,0l0,0l0,0l0,0l0,0l0,0l0,0l0,0l0,0l0,0l0,0l0,0l0,0l0,0l0,0l0,0l0,0l0,0l0,0l0,0l0,0l0,0l0,0l0,0l0,0l0,0l0,0l0,0
	l0,0l0,0l0,0l0,0l0,0l0,0l0,0l0,0l0,0l0,0l0,0l0,0l0,0l0,0l0,0l0,0l0,0l0,0l0,0l0,0l0,0l0,0l0,0l0,0l0,0l0,0l0,0l0,0l0,0l0,0l0,0
	l0,0l0,0l0,0l0,0l0,0l0,0l0,0l0,0l0,0l0,0l0,0l0,0l0,0l0,0l0,0l0,0l0,0l0,0l0,0l0,0l0,0l0,0l0,0l0,0l0,0l0,0l0,0l0,0l0,0l0,0l0,0
	l0,0l0,0l0,0l0,0l0,0l0,0l0,0l0,0l0,0l0,0l0,0l0,0l0,0l0,0l0,0l0,0l0,0l0,0l0,0l0,0l0,0l0,0l0,0l0,0l0,0l0,0l0,0l0,0l0,0l0,0l0,0
	l0,0l0,0l0,0l0,0l0,0l0,0l0,0l0,0l0,0l0,0l0,0l0,0l0,0l0,0l0,0l0,0l0,0l0,0l0,0l0,0l0,0l0,0l0,0l0,0l0,0l0,0l0,0l0,0l0,0l0,0l0,0
	l0,0l0,0l0,0l0,0l0,0l0,0l0,0l0,0l0,0l0,0l0,0l0,0l0,0l0,0l0,0l0,0l0,0l0,0l0,0l0,0l0,0l0,0l0,0l0,0l0,0l0,0l0,0l0,0l0,0l0,0l0,0
	l0,0l0,0l0,0l0,0l0,0l0,0l0,0l0,0l0,0l0,0l0,0l0,0l0,0l0,0l0,0l0,0l0,0l0,0l0,0l0,0l0,0l0,0l0,0l0,0l0,0l0,0l0,0l0,0l0,0l0,0l0,0
	l0,0l0,0l0,0l0,0l0,0l0,0l0,0l0,0l0,0l0,0l0,0l0,0l0,0l0,0l0,0l0,0l0,0l0,0l0,0l0,0l0,0l0,0l0,0l0,0l0,0l0,0l0,0l0,0l0,0l0,0l0,0
	l0,0l0,0l0,0l0,0l0,0l0,0l0,0l0,0l0,0l0,0l0,0l0,0l0,0l0,0l0,0l0,0l0,0l0,0l0,0l0,0l0,0l0,0l0,0l0,0l0,0l0,0l0,0l0,0l0,0l0,0l0,0
	l0,0l0,0l0,0l0,0l0,0l0,0l0,0l0,0l0,0l0,0l0,0l0,0l0,0l0,0l0,0l0,0l0,0l0,0l0,0l0,0l0,0l0,0l0,0l0,0l0,0l0,0l0,0l0,0l0,0l0,0l0,0
	l0,0l0,0l0,0l0,0l0,0l0,0l0,0l0,0l0,0l0,0l0,0l0,0l0,0l0,0l0,0l0,0l0,0l0,0l0,0l0,0l0,0l0,0l0,0l0,0l0,0l0,0l0,0l0,0l0,0l0,0l0,0
	l0,0l0,0l0,0l0,0l0,0l0,0l0,0l0,0l0,0l0,0l0,0l0,0l0,0l0,0l0,0l0,0l0,0l0,0l0,0l0,0l0,0l0,0l0,0l0,0l0,0l0,0l0,0l0,0l0,0l0,0l0,0
	l0,0l0,0l0,0l0,0l0,0l0,0l0,0l0,0l0,0l0,0l0,0l0,0l0,0l0,0l0,0l0,0l0,0l0,0l0,0l0,0l0,0l0,0l0,0l0,0l0,0l0,0l0,0l0,0l0,0l0,0l0,0
	l0,0l0,0l0,0l0,0l0,0l0,0l0,0l0,0l0,0l0,0l0,0l0,0l0,0l0,0l0,0l0,0l0,0l0,0l0,0l0,0l0,0l0,0l0,0l0,0l0,0l0,0l0,0l0,0l0,0l0,0l0,0
	l0,0l0,0l0,0l0,0l0,0l0,0l0,0l0,0l0,0l0,0l0,0l0,0l0,0l0,0l0,0l0,0l0,0l0,0l0,0l0,0l0,0l0,0l0,0l0,0l0,0l0,0l0,0l0,0l0,0l0,0l0,0
	l0,0l0,0l0,0l0,0l0,0l0,0l0,0l0,0l0,0l0,0l0,0l0,0l0,0l0,0l0,0l0,0l0,0l0,0l0,0l0,0l0,0l0,0l0,0l0,0l0,0l0,0l0,0l0,0l0,0l0,0l0,0
	l0,0l0,0l0,0l0,0l0,0l0,0l0,0l0,0l0,0l0,0l0,0l0,0l0,0l0,0l0,0l0,0l0,0l0,0l0,0l0,0l0,0l0,0l0,0l0,0l0,0l0,0l0,0l0,0l0,0l0,0l0,0
	l0,0l0,0l0,0l0,0l0,0l0,0l0,0l0,0l0,0l0,0l0,0l0,0l0,0l0,0l0,0l0,0l0,0l0,0l0,0l0,0l0,0l0,0l0,0l0,0l0,0l0,0l0,0l0,0l0,0l0,0l0,0
	l0,0l0,0l0,0l0,0l0,0l0,0l0,0l0,0l0,0l0,0l0,0l0,0l0,0l0,0l0,0l0,0l0,0l0,0l0,0l0,0l0,0l0,0l0,0l0,0l0,0l0,0l0,0l0,0l0,0l0,0l0,0
	l0,0l0,0l0,0l0,0l0,0l0,0l0,0l0,0l0,0l0,0l0,0l0,0l0,0l0,0l0,0l0,0l0,0l0,0l0,0l0,0l0,0l0,0l0,0l0,0l0,0l0,0l0,0l0,0l0,0l0,0l0,0
	l0,0l0,0l0,0l0,0l0,0l0,0l0,0l0,0l0,0l0,0l0,0l0,0l0,0l0,0l0,0l0,0l0,0l0,0l0,0l0,0l0,0l0,0l0,0l0,0l0,0l0,0l0,0l0,0l0,0l0,0l0,0
	l0,0l0,0l0,0l0,0l0,0l0,0l0,0l0,0l0,0l0,0l0,0l0,0l0,0l0,0l0,0l0,0l0,0l0,0l0,0l0,0l0,0c0,0,0,0,0.1,0l0,0l0,0l0,0l0,0l0,0l0,0l0,0
	l0,0l0,0l0,0l0,0l0,0l0,0l0,0l0,0l0,0l0,0l0,0l0,0l0,0l0,0l0,0l0,0l0,0l0,0l0,0l0,0l0,0l0,0l0,0l0,0l0,0l0,0l0,0l0,0l0,0l0,0l0,0
	l0,0l0,0l0,0l0,0l0,0l0,0l0,0l0,0l0,0l0,0l0,0l0,0l0,0l0,0l0,0l0,0l0,0l0,0l0,0l0,0l0,0l0,0l0,0l0,0l0,0l0,0l0,0l0,0l0,0l0,0l0,0
	l0,0l0,0l0,0l0,0l0,0l0,0l0,0l0,0l0,0l0,0l0,0l0,0l0,0l0,0l0,0l0,0l0,0l0,0l0,0l0,0l0,0l0,0l0,0l0,0l0,0l0,0l0,0l0,0l0,0l0,0l0,0
	l0,0l0,0l0,0h0.1l0,0l0,0l0,0l0,0l0,0l0,0l0,0l0,0l0,0l0,0l0,0l0,0l0,0l0,0l0,0l0,0l0,0l0,0l0,0l0,0l0,0l0,0l0,0l0,0l0,0l0,0l0,0
	l0,0l0,0l0,0l0,0l0,0l0,0l0,0l0,0l0,0l0,0l0,0l0,0l0,0l0,0l0,0l0,0l0,0l0,0l0,0l0,0l0,0l0,0l0,0l0,0l0,0l0,0l0,0l0,0l0,0l0,0l0,0
	l0,0l0,0l0,0l0,0l0,0l0,0l0,0l0,0l0,0l0,0l0,0l0,0l0,0l0,0l0,0l0,0l0,0l0,0l0,0l0,0l0,0l0,0l0,0l0,0l0,0l0,0l0,0c0,0,0,0,0.1,0l0,0
	l0,0l0,0l0,0l0,0l0,0l0,0l0,0l0,0l0,0l0,0l0,0l0,0l0,0l0,0l0,0l0,0l0,0l0,0l0,0l0,0l0,0l0,0l0,0l0,0l0,0l0,0l0,0l0,0l0,0l0,0l0,0
	l0,0c0,0,0,0,0.1,0l0,0l0,0l0,0l0,0l0,0l0,0l0,0l0,0l0,0l0,0l0,0l0,0l0,0l0,0l0,0l0,0l0,0l0,0l0,0l0,0l0,0l0,0l0,0l0,0l0,0l0,0l0,0
	l0,0l0,0l0,0l0,0l0,0l0,0l0,0l0,0l0,0l0,0l0,0l0,0l0,0l0,0l0,0l0,0l0,0l0,0l0,0l0,0l0,0l0,0l0,0l0,0l0,0l0,0l0,0l0,0l0,0l0,0l0,0
	l0,0l0,0l0,0l0,0l0,0l0,0l0,0l0,0l0,0c0,0,0,0,0.1,0l0,0l0,0l0,0l0,0l0,0l0,0l0,0l0,0l0,0l0,0l0,0l0,0l0,0h0.1l0,0l0,0l0,0l0,0l0,0
	l0,0l0,0l0,0l0,0l0,0l0,0l0,0l0,0l0,0l0,0l0,0l0,0l0,0l0,0l0,0l0,0l0,0l0,0l0,0l0,0l0,0l0,0l0,0l0,0l0,0l0,0l0,0l0,0l0,0l0,0l0,0
	l0,0l0,0l0,0l0,0l0,0l0,0l0,0l0,0l0,0l0,0l0,0l0,0l0,0c0,0,0,0,0.1,0l0,0l0,0l0,0l0,0l0,0l0,0l0,0l0,0l0,0l0,0l0,0l0,0l0,0l0,0l0,0
	h0.1l0,0l0,0l0,0l0,0l0,0l0,0l0,0l0,0l0,0l0,0l0,0l0,0l0,0l0,0l0,0c0,0,0,0,0.1,0l0,0l0,0l0,0l0,0l0,0l0,0l0,0l0,0l0,0l0,0l0,0l0,0
	l0,0l0,0l0,0c0,0,0,0,0.1,0l0,0l0,0l0,0l0,0l0,0l0,0l0,0l0,0l0,0l0,0l0,0l0,0l0,0l0,0l0,0c0,0,0,0,0.1,0l0,0l0,0l0,0l0,0l0,0l0,0
	l0,0l0,0l0,0l0,0l0,0l0,0l0,0l0,0l0,0l0,0l0,0l0,0l0,0l0,0l0,0l0,0l0,0l0,0l0,0l0,0l0,0l0,0l0,0l0,0l0,0l0,0l0,0l0,0l0,0l0,0l0,0
	l0,0l0,0l0,0l0,0l0,0l0,0l0,0l0,0l0,0l0,0l0,0l0,0l0,0l0,0l0,0l0,0l0,0l0,0l0,0l0,0l0,0l0,0l0,0l0,0l0,0l0,0l0,0l0,0l0,0l0,0
	c0,0,0,0,0.1,0l0,0l0,0l0,0l0,0l0,0l0,0l0,0l0,0l0,0l0,0l0,0l0,0l0,0l0,0l0,0l0,0l0,0l0,0l0,0l0,0l0,0l0,0l0,0l0,0l0,0l0,0l0,0l0,0
	l0,0l0,0l0,0c0,0,0,0,0.1,0l0,0l0,0l0,0l0,0l0,0l0,0l0,0l0,0l0,0l0,0l0,0l0,0l0,0l0,0l0,0l0,0l0,0l0,0l0,0l0,0l0,0l0,0l0,0l0,0l0,0
	l0,0l0,0l0,0l0,0l0,0l0,0l0,0l0,0c0,0,0,0,0.1,0l0,0l0,0l0,0l0,0l0,0l0,0l0,0l0,0l0,0l0,0l0,0l0,0l0,0l0,0l0,0l0,0l0,0l0,0l0,0l0,0
	l0,0l0,0l0,0l0,0l0,0l0,0l0,0l0,0l0,0l0,0l0,0l0,0l0,0h0.1l0,0l0,0l0,0l0,0l0,0l0,0l0,0l0,0l0,0l0,0l0,0l0,0l0,0l0,0l0,0
	c0,0,0,0,0.1,0l0,0l0,0l0,0l0,0l0,0l0,0l0,0l0,0l0,0l0,0l0,0l0,0l0,0l0,0l0,0h0.1l0,0l0,0l0,0l0,0l0,0l0,0l0,0l0,0l0,0l0,0l0,0l0,0
	l0,0l0,0l0,0l0,0l0,0l0,0l0,0l0,0l0,0l0,0l0,0l0,0l0,0l0,0l0,0l0,0l0,0l0,0l0,0l0,0l0,0l0,0l0,0l0,0l0,0l0,0l0,0l0,0l0,0l0,0l0,0
	l0,0l0,0l0,0l0,0l0,0l0,0c0,0,0,0,0.1,0l0,0l0,0l0,0l0,0l0,0l0,0l0,0l0,0l0,0l0,0l0,0l0,0l0,0l0,0l0,0l0,0l0,0l0,0l0,0l0,0l0,0l0,0
	l0,0l0,0l0,0l0,0l0,0l0,0l0,0l0,0l0,0l0,0l0,0H2l0,0l0,0l0,0l0,0l0,0l0,0l0,0l0,0l0,0l0,0l0,0l0,0l0,0l0,0l0,0l0,0l0,0l0,0l0,0l0,0
	l0,0l0,0l0,0l0,0l0,0l0,0l0,0l0,0l0,0l0,0l0,0h0.1l0,0l0,0l0,0l0,0l0,0l0,0l0,0l0,0l0,0l0,0l0,0l0,0l0,0l0,0l0,0l0,0l0,0l0,0l0,0
	l0,0l0,0l0,0l0,0l0,0l0,0l0,0l0,0l0,0l0,0l0,0l0,0l0,0l0,0l0,0l0,0l0,0l0,0l0,0l0,0l0,0l0,0l0,0l0,0l0,0l0,0l0,0l0,0l0,0l0,0h0.1
	l0,0l0,0l0,0l0,0l0,0l0,0l0,0l0,0l0,0l0,0l0,0l0,0l0,0l0,0l0,0c0,0,0,0,0.1,0l0,0l0,0l0,0l0,0l0,0l0,0l0,0l0,0l0,0l0,0l0,0l0,0l0,0
	l0,0l0,0c0,0,0,0,0.1,0l0,0l0,0l0,0l0,0l0,0l0,0l0,0l0,0l0,0l0,0l0,0l0,0l0,0l0,0l0,0l0,0l0,0l0,0l0,0l0,0l0,0l0,0l0,0l0,0l0,0l0,0
	l0,0l0,0l0,0l0,0l0,0l0,0l0,0c0,0,0,0,0.1,0l0,0l0,0l0,0l0,0l0,0l0,0l0,0l0,0l0,0l0,0l0,0l0,0l0,0h0.1l0,0l0,0l0,0l0,0l0,0l0,0l0,0
	l0,0l0,0l0,0l0,0l0,0l0,0h0.1l0,0l0,0l0,0l0,0l0,0l0,0l0,0l0,0l0,0l0,0l0,0l0,0l0,0l0,0l0,0c0,0,0,0,0.1,0l0,0l0,0l0,0l0,0l0,0l0,0
	l0,0l0,0l0,0l0,0l0,0l0,0l0,0l0,0l0,0l0,0l0,0l0,0l0,0l0,0l0,0l0,0l0,0l0,0l0,0l0,0l0,0l0,0l0,0l0,0l0,0l0,0l0,0l0,0l0,0l0,0l0,0
	l0,0l0,0l0,0l0,0l0,0l0,0l0,0l0,0l0,0l0,0l0,0l0,0h0.1l0,0l0,0l0,0l0,0l0,0l0,0l0,0l0,0l0,0l0,0l0,0l0,0l0,0c0,0,0,0,0.1,0l0,0l0,0
	l0,0l0,0l0,0l0,0l0,0l0,0l0,0l0,0l0,0l0,0l0,0l0,0l0,0h0.1l0,0l0,0l0,0l0,0l0,0l0,0l0,0l0,0l0,0l0,0l0,0l0,0l0,0l0,0l0,0l0,0l0,0
	l0,0l0,0l0,0l0,0l0,0l0,0l0,0l0,0l0,0l0,0l0,0l0,0l0,0l0,0l0,0l0,0l0,0l0,0l0,0l0,0l0,0l0,0l0,0l0,0l0,0l0,0l0,0l0,0l0,0l0,0l0,0
	l0,0l0,0l0,0l0,0l0,0l0,0l0,0l0,0l0,0l0,0l0,0l0,0l0,0l0,0l0,0l0,0l0,0l0,0l0,0l0,0l0,0l0,0l0,0l0,0l0,0l0,0l0,0l0,0l0,0l0,0l0,0
	l0,0l0,0l0,0l0,0l0,0l0,0c0,0,0,0,0.1,0l0,0l0,0l0,0l0,0l0,0l0,0l0,0l0,0l0,0l0,0l0,0l0,0l0,0l0,0l0,0l0,0l0,0l0,0l0,0l0,0l0,0l0,0
	l0,0l0,0l0,0l0,0l0,0l0,0l0,0l0,0l0,0l0,0l0,0l0,0l0,0l0,0l0,0l0,0l0,0l0,0l0,0l0,0l0,0l0,0l0,0l0,0l0,0l0,0l0,0l0,0l0,0l0,0l0,0
	l0,0l0,0l0,0l0,0l0,0l0,0l0,0l0,0l0,0l0,0l0,0l0,0l0,0l0,0l0,0l0,0l0,0l0,0l0,0l0,0l0,0l0,0l0,0l0,0l0,0l0,0l0,0l0,0l0,0l0,0l0,0
	l0,0l0,0l0,0l0,0l0,0l0,0l0,0l0,0l0,0l0,0l0,0l0,0l0,0l0,0L39,49.8L39,49.8L39,49.8L39,49.8z"/>
<ellipse class="st36" cx="39" cy="28.9" rx="20.9" ry="7"/>
<path class="st37" d="M56,25.5c-0.7,0-1.5,0.2-2.1,0.7l0,0c-1.6,1.1-1.9,3.3-0.8,4.9c1.1,1.5,3.2,1.9,4.7,0.8c0,0,0.1,0,0.1-0.1l0,0
	l0,0l0,0l0,0c0,0,0.1,0,0.1-0.1l0,0c0.1,0,0.1-0.1,0.2-0.1c1.5-1.2,1.7-3.3,0.6-4.7C58.2,26,57.1,25.5,56,25.5L56,25.5z M39,21.9
	L39,21.9L39,21.9L39,21.9C38.9,21.9,38.9,21.9,39,21.9L39,21.9L39,21.9L39,21.9L39,21.9L39,21.9L39,21.9L39,21.9L39,21.9L39,21.9
	L39,21.9L39,21.9L39,21.9L39,21.9L39,21.9L39,21.9L39,21.9L39,21.9L39,21.9L39,21.9L39,21.9L39,21.9L39,21.9L39,21.9L39,21.9
	L39,21.9L39,21.9L39,21.9L39,21.9L39,21.9L39,21.9L39,21.9L39,21.9L39,21.9L39,21.9L39,21.9L39,21.9L39,21.9L39,21.9L39,21.9
	L39,21.9L39,21.9L39,21.9L39,21.9L39,21.9L39,21.9L39,21.9L39,21.9L39,21.9L39,21.9L39,21.9L39,21.9L39,21.9L39,21.9L39,21.9
	L39,21.9L39,21.9L39,21.9L39,21.9L39,21.9L39,21.9L39,21.9L39,21.9L39,21.9L39,21.9L39,21.9L39,21.9L39,21.9L39,21.9L39,21.9
	L39,21.9L39,21.9L39,21.9L39,21.9L39,21.9L39,21.9L39,21.9L39,21.9L39,21.9L39,21.9L39,21.9L39,21.9L39,21.9L39,21.9L39,21.9
	L39,21.9L39,21.9L39,21.9L39,21.9L39,21.9L39,21.9L39,21.9L39,21.9L39,21.9L39,21.9L39,21.9L39,21.9L39,21.9L39,21.9L39,21.9
	L39,21.9L39,21.9L39,21.9L39,21.9L39,21.9L39,21.9L39,21.9L39,21.9L39,21.9L39,21.9L39,21.9L39,21.9L39,21.9L39,21.9L39,21.9
	L39,21.9L39,21.9L39,21.9L39,21.9L39,21.9L39,21.9L39,21.9L39,21.9L39,21.9L39,21.9L39,21.9L39,21.9L39,21.9L39,21.9L39,21.9
	L39,21.9L39,21.9L39,21.9L39,21.9L39,21.9L39,21.9L39,21.9L39,21.9L39,21.9L39,21.9L39,21.9L39,21.9L39,21.9L39,21.9L39,21.9
	L39,21.9L39,21.9L39,21.9L39,21.9L39,21.9L39,21.9L39,21.9L39,21.9L39,21.9L39,21.9L39,21.9L39,21.9L39,21.9L39,21.9L39,21.9
	L39,21.9L39,21.9L39,21.9L39,21.9L39,21.9L39,21.9L39,21.9L39,21.9L39,21.9L39,21.9L39,21.9L39,21.9L39,21.9L39,21.9L39,21.9
	L39,21.9L39,21.9L39,21.9L39,21.9L39,21.9L39,21.9L39,21.9L39,21.9L39,21.9L39,21.9L39,21.9L39,21.9L39,21.9L39,21.9L39,21.9
	L39,21.9L39,21.9L39,21.9L39,21.9L39,21.9L39,21.9L39,21.9L39,21.9L39,21.9L39,21.9L39,21.9L39,21.9L39,21.9L39,21.9L39,21.9
	L39,21.9L39,21.9L39,21.9L39,21.9L39,21.9L39,21.9L39,21.9L39,21.9L39,21.9L39,21.9L39,21.9L39,21.9L39,21.9L39,21.9L39,21.9
	L39,21.9L39,21.9L39,21.9L39,21.9L39,21.9L39,21.9L39,21.9L39,21.9L39,21.9L39,21.9L39,21.9L39,21.9L39,21.9L39,21.9L39,21.9
	L39,21.9L39,21.9L39,21.9L39,21.9L39,21.9L39,21.9L39,21.9L39,21.9L39,21.9L39,21.9L39,21.9L39,21.9L39,21.9L39,21.9L39,21.9
	L39,21.9L39,21.9L39,21.9L39,21.9L39,21.9L39,21.9L39,21.9L39,21.9L39,21.9L39,21.9L39,21.9L39,21.9L39,21.9L39,21.9L39,21.9
	L39,21.9L39,21.9L39,21.9L39,21.9L39,21.9L39,21.9L39,21.9L39,21.9L39,21.9L39,21.9L39,21.9L39,21.9L39,21.9L39,21.9L39,21.9
	L39,21.9L39,21.9L39,21.9L39,21.9L39,21.9L39,21.9L39,21.9L39,21.9L39,21.9L39,21.9L39,21.9L39,21.9L39,21.9L39,21.9L39,21.9
	L39,21.9L39,21.9L39,21.9L39,21.9L39,21.9L39,21.9L39,21.9L39,21.9L39,21.9L39,21.9L39,21.9L39,21.9L39,21.9L39,21.9L39,21.9
	L39,21.9L39,21.9L39,21.9L39,21.9L39,21.9L39,21.9L39,21.9L39,21.9L39,21.9L39,21.9L39,21.9L39,21.9L39,21.9L39,21.9L39,21.9
	L39,21.9L39,21.9L39,21.9L39,21.9L39,21.9L39,21.9L39,21.9L39,21.9L39,21.9L39,21.9L39,21.9L39,21.9L39,21.9L39,21.9L39,21.9
	L39,21.9L39,21.9L39,21.9L39,21.9L39,21.9L39,21.9L39,21.9L39,21.9L39,21.9L39,21.9L39,21.9L39,21.9L39,21.9L39,21.9L39,21.9
	L39,21.9L39,21.9L39,21.9L39,21.9L39,21.9L39,21.9L39,21.9L39,21.9L39,21.9L39,21.9L39,21.9L39,21.9L39,21.9L39,21.9L39,21.9
	L39,21.9L39,21.9L39,21.9L39,21.9L39,21.9L39,21.9L39,21.9c-0.1,0-0.1,0-0.2,0l0,0h-0.1l0,0l0,0l0,0l0,0l0,0l0,0l0,0l0,0l0,0l0,0
	l0,0l0,0l0,0l0,0l0,0l0,0l0,0l0,0l0,0l0,0l0,0l0,0l0,0l0,0l0,0l0,0l0,0l0,0l0,0l0,0l0,0l0,0l0,0l0,0l0,0l0,0l0,0l0,0l0,0l0,0l0,0
	h-0.1l0,0l0,0l0,0l0,0l0,0l0,0l0,0l0,0l0,0l0,0l0,0l0,0l0,0l0,0l0,0l0,0l0,0l0,0l0,0l0,0l0,0l0,0l0,0l0,0l0,0h-0.1l0,0
	c-0.1,0-0.1,0-0.2,0l0,0c-0.2,0-0.4,0-0.6,0.1l0,0c-3.9,0.4-7.3,1.2-9.9,2.2l0,0l0,0l0,0c0,0,0,0-0.1,0l0,0h-0.1l0,0l0,0l0,0l0,0
	l0,0l0,0l0,0l0,0l0,0l0,0l0,0l0,0l0,0l0,0l0,0l0,0l0,0l0,0l0,0l0,0l0,0l0,0l0,0l0,0l0,0l0,0l0,0l0,0l0,0l0,0l0,0l0,0l0,0l0,0l0,0
	l0,0l0,0l0,0l0,0l0,0l0,0l0,0l0,0l0,0l0,0l0,0l0,0l0,0l0,0l0,0l0,0l0,0l0,0l0,0l0,0l0,0l0,0l0,0l0,0l0,0l0,0l0,0l0,0l0,0l0,0l0,0
	l0,0l0,0h-0.1l0,0c-0.1,0-0.2,0.1-0.3,0.1c-1.7,0.8-2.5,2.9-1.7,4.6s2.9,2.5,4.6,1.7c2.3-1.1,7.3-2.3,14.1-2.3
	c2.7,0,5.5,0.2,8.1,0.6c1.9,0.3,3.7-1,4-2.9s-1-3.7-2.9-4c-0.1,0-0.2,0-0.3,0l0,0l0,0l0,0l0,0l0,0l0,0l0,0l0,0l0,0l0,0l0,0l0,0l0,0
	l0,0l0,0l0,0l0,0l0,0l0,0l0,0l0,0l0,0l0,0l0,0l0,0l0,0l0,0l0,0l0,0l0,0l0,0l0,0l0,0l0,0l0,0l0,0l0,0l0,0l0,0l0,0l0,0l0,0l0,0l0,0
	c-0.1,0-0.1,0-0.2,0l0,0l0,0l0,0c-1.5-0.2-3.1-0.4-4.8-0.5l0,0H48l0,0l0,0l0,0h-0.1l0,0l0,0l0,0h-0.1l0,0l0,0l0,0l0,0l0,0l0,0l0,0
	l0,0l0,0l0,0l0,0l0,0l0,0l0,0l0,0l0,0l0,0l0,0l0,0l0,0l0,0l0,0l0,0l0,0l0,0l0,0l0,0l0,0l0,0l0,0l0,0l0,0l0,0l0,0l0,0l0,0l0,0l0,0
	l0,0l0,0l0,0l0,0l0,0l0,0l0,0l0,0l0,0l0,0l0,0l0,0l0,0l0,0l0,0l0,0l0,0l0,0l0,0l0,0l0,0l0,0l0,0l0,0l0,0l0,0l0,0l0,0l0,0l0,0l0,0
	l0,0l0,0l0,0l0,0l0,0l0,0l0,0l0,0l0,0l0,0l0,0l0,0l0,0l0,0l0,0l0,0l0,0l0,0l0,0l0,0l0,0l0,0l0,0l0,0l0,0l0,0l0,0l0,0l0,0l0,0l0,0
	l0,0l0,0l0,0l0,0l0,0l0,0l0,0l0,0l0,0l0,0l0,0l0,0l0,0l0,0l0,0l0,0l0,0l0,0l0,0l0,0l0,0l0,0l0,0l0,0l0,0l0,0l0,0l0,0l0,0l0,0l0,0
	l0,0l0,0l0,0l0,0l0,0l0,0l0,0l0,0l0,0l0,0l0,0l0,0l0,0l0,0l0,0l0,0l0,0l0,0l0,0C39.1,21.9,39.1,21.9,39,21.9L39,21.9
	C39.1,21.9,39.1,21.9,39,21.9L39,21.9L39,21.9z"/>
<path class="st32" d="M54.4,73.9l0.2-0.1c3.5-0.9,5.8-4.3,5.2-7.9l-1.5-8.8c-0.6-3.3-3.4-5.8-6.8-5.8l0,0c-3.8,0-7,3.1-7,6.9
	c0,0.3,0,0.7,0.1,1l1.3,8.8c0.5,3.8,4.1,6.4,7.9,5.9C54,74,54.2,74,54.4,73.9z"/>
<path class="st38" d="M2.2,69.2L68.9,2.5c1.9-1.9,5-1.9,7,0l0,0c1.9,1.9,1.9,5,0,7l0,0L9.1,76.2c-1.9,1.9-5,1.9-7,0l0,0
	C0.2,74.3,0.2,71.2,2.2,69.2L2.2,69.2z"/>
<path class="st36" d="M62,9.4c1.9-1.9,5-1.9,7,0s1.9,5,0,7l7-7c1.9-1.9,1.9-5,0-7c-1.9-1.9-5-1.9-7,0L62,9.4z"/>
<g class="st0">
	<path class="st39" d="M10.4,5.1c-1.1,2.5-3.1,4.5-5.6,5.6c-0.5,0.2-0.7,0.7-0.5,1.1c0.1,0.2,0.3,0.4,0.5,0.5
		c2.5,1.1,4.5,3.1,5.6,5.6c0.2,0.5,0.7,0.7,1.1,0.5c0.2-0.1,0.4-0.3,0.5-0.5c1.1-2.5,3.1-4.5,5.6-5.6c0.5-0.2,0.7-0.7,0.5-1.1
		c-0.1-0.2-0.3-0.4-0.5-0.5C15,9.6,13.1,7.6,12,5.1c-0.2-0.5-0.7-0.7-1.1-0.5C10.6,4.7,10.4,4.8,10.4,5.1z"/>
	<path class="st39" d="M20.8,22.5c-1.1,2.5-3.1,4.5-5.6,5.6c-0.4,0.2-0.7,0.7-0.5,1.1c0.1,0.2,0.3,0.4,0.5,0.5
		c2.5,1.1,4.5,3.1,5.6,5.6c0.2,0.4,0.7,0.7,1.1,0.5c0.2-0.1,0.4-0.3,0.5-0.5c1.1-2.5,3.1-4.5,5.6-5.6c0.4-0.2,0.7-0.7,0.5-1.1
		c-0.1-0.2-0.3-0.4-0.5-0.5c-2.5-1.1-4.5-3.1-5.6-5.6c-0.2-0.4-0.7-0.7-1.1-0.5C21.1,22.1,20.9,22.2,20.8,22.5z"/>
	<path class="st39" d="M69,15.6c-0.4,0.6-0.9,1-1.4,1.5c-0.8,0.6-0.9,1.6-0.4,2.4c0.1,0.1,0.2,0.3,0.4,0.4c0.5,0.4,1,0.9,1.4,1.5
		c0.6,0.7,1.6,0.9,2.4,0.3c0.1-0.1,0.2-0.2,0.3-0.3c0.4-0.6,0.9-1,1.4-1.5c0.8-0.6,0.9-1.6,0.4-2.4c-0.1-0.1-0.2-0.3-0.4-0.4
		c-0.5-0.4-1-0.9-1.4-1.5c-0.6-0.7-1.6-0.9-2.4-0.3C69.2,15.4,69.1,15.5,69,15.6z"/>
	<path class="st39" d="M55.6,5.1c-1.1,2.5-3.1,4.5-5.6,5.6c-0.5,0.2-0.7,0.7-0.5,1.1c0.1,0.2,0.3,0.4,0.5,0.5
		c2.5,1.1,4.5,3.1,5.6,5.6c0.2,0.5,0.7,0.7,1.1,0.5c0.2-0.1,0.4-0.3,0.5-0.5c1.1-2.5,3.1-4.5,5.6-5.6c0.5-0.2,0.7-0.7,0.5-1.1
		c-0.1-0.2-0.3-0.4-0.5-0.5c-2.5-1.1-4.5-3.1-5.6-5.6c-0.2-0.5-0.7-0.7-1.1-0.5C55.9,4.7,55.7,4.8,55.6,5.1z"/>
	<path class="st39" d="M52.1,29.5c-1,2.5-3,4.5-5.5,5.5c-0.5,0.2-0.7,0.7-0.5,1.1c0.1,0.2,0.3,0.4,0.5,0.5c2.5,1.1,4.5,3.1,5.6,5.6
		c0.2,0.5,0.7,0.7,1.1,0.5c0.2-0.1,0.4-0.3,0.5-0.5c1.1-2.5,3.1-4.5,5.6-5.6c0.5-0.2,0.7-0.7,0.5-1.1c-0.1-0.2-0.3-0.4-0.5-0.5
		c-2.5-1.1-4.5-3.1-5.6-5.6c-0.2-0.5-0.7-0.7-1.1-0.5C52.4,29,52.2,29.2,52.1,29.5L52.1,29.5z"/>
</g>
<path class="st40" d="M2.5,68.9L61.7,9.7c1-1,2.5-1,3.5,0l0,0c1,1,1,2.5,0,3.5L5.9,72.4c-1,1-2.5,1-3.5,0l0,0
	C1.5,71.5,1.5,69.9,2.5,68.9z"/>
<path class="st41" d="M67.6,3.8l2-2c1-1,2.5-1,3.5,0l0,0c1,1,1,2.5,0,3.5l-2,2c-1,1-2.5,1-3.5,0l0,0C66.7,6.3,66.7,4.7,67.6,3.8z"/>
<g class="st0">
	<circle class="st42" cx="9.4" cy="9.7" r="1.7"/>
	<circle class="st42" cx="19.9" cy="27.1" r="1.7"/>
	<circle class="st42" cx="54.7" cy="9.7" r="1.7"/>
	<circle class="st42" cx="51.2" cy="34.1" r="1.7"/>
</g>
<g class="st0">
	<g class="st1">
		<path class="st43" d="M131.2,51.6c-0.2-6.8-0.4-14.8-0.3-24.1h-0.2c-1.8,8-4.4,16.9-6.3,23.4l-5.9,20.8H106l-5-20.8
			c-1.5-6.4-3.4-15.3-4.8-23.5H96c-0.3,8.4-0.6,17.3-0.9,24.1l-1,21.5H79.4l3.7-59.8h21.6l3.9,16.1c1.6,6.7,3.4,14.6,4.7,21.9h0.3
			c1.7-7.3,3.7-15.7,5.4-22l4.5-16h21.1l3,59.8h-15.5L131.2,51.6z"/>
		<path class="st43" d="M173,59.1L169.7,73h-16.6l17.3-59.8h21.3L209.6,73h-17.3l-3.8-13.9H173z M186.3,47.3l-2.8-10.8
			c-0.9-3.4-2-8.2-3-11.8h-0.2c-0.9,3.5-1.8,8.4-2.6,11.8l-2.6,10.7L186.3,47.3L186.3,47.3z"/>
		<path class="st43" d="M269,70.2c-4.5,1.5-12.8,3.4-20.6,3.4c-11.7,0-19.8-2.9-25.1-8.1c-5.6-5.3-8.6-13-8.5-21.6
			c0.1-20.8,15.5-31.3,34.9-31.3c8.1,0,14.2,1.4,17.3,2.9l-3.2,12.8c-3.4-1.4-7.4-2.5-14.2-2.5c-9.9,0-18,5.2-18,17.3
			c0,11.1,7.2,17.6,17,17.6c2.2,0,4.3-0.2,5-0.5V49.9h-8V37.5H269V70.2z"/>
		<path class="st43" d="M295.1,13.2V73h-16V13.2H295.1z"/>
		<path class="st43" d="M350.8,71.4c-2.3,1.1-7.9,2.5-15.1,2.5c-22.4,0-32.2-13.9-32.2-29.8c0-21.1,15.5-31.8,33.3-31.8
			c6.9,0,12.5,1.3,14.9,2.7l-3.1,12.6c-2.6-1.1-6.3-2.2-11.1-2.2c-9.2,0-17.2,5.4-17.2,17.7c0,10.8,6.5,17.6,17.4,17.6
			c3.9,0,8.2-0.8,10.7-1.7L350.8,71.4z"/>
		<path class="st43" d="M377,13.2h38.4v13.1H393v11h21v12.9h-21V73h-16V13.2z"/>
		<path class="st43" d="M441.4,13.2V73h-16V13.2H441.4z"/>
		<path class="st43" d="M452.4,73V13.2h18.9l9.5,18.3c3.2,5.9,6.7,13.9,9.4,21h0.2c-0.9-7.9-1.2-16.2-1.2-25.2V13.2h14.6V73H487
			l-10.1-19.9c-3.3-6.3-7.2-14.4-10.1-21.6h-0.3c0.4,8.1,0.6,17.1,0.6,26.8V73H452.4z"/>
		<path class="st43" d="M530.6,59.1L527.2,73h-16.6L528,13.2h21.3L567.2,73h-17.3l-3.8-13.9H530.6z M543.9,47.3l-2.8-10.8
			c-0.9-3.4-2-8.2-3-11.8h-0.2c-0.9,3.5-1.8,8.4-2.6,11.8l-2.6,10.7L543.9,47.3L543.9,47.3z"/>
		<path class="st43" d="M574.8,73V13.2h18.9l9.5,18.3c3.2,5.9,6.7,13.9,9.4,21h0.2c-0.9-7.9-1.2-16.2-1.2-25.2V13.2h14.6V73h-16.9
			l-10.1-19.9c-3.3-6.3-7.2-14.4-10.1-21.6h-0.3c0.4,8.1,0.6,17.1,0.6,26.8V73H574.8z"/>
		<path class="st43" d="M682.1,71.4c-2.3,1.1-7.9,2.5-15.1,2.5c-22.4,0-32.2-13.9-32.2-29.8c0-21.1,15.5-31.8,33.3-31.8
			c6.9,0,12.5,1.3,14.9,2.7l-3.1,12.6c-2.6-1.1-6.3-2.2-11.1-2.2c-9.2,0-17.2,5.4-17.2,17.7c0,10.8,6.5,17.6,17.4,17.6
			c3.9,0,8.2-0.8,10.7-1.7L682.1,71.4z"/>
		<path class="st43" d="M728.2,48.9h-21.5v11h24V73h-40V13.2h38.8v13.1h-22.8v9.6h21.5V48.9z"/>
	</g>
</g>
<g>
	<g>
		<path class="st44" d="M51.3,4.4h24.3c15.6,0,28.2,5.6,28.2,22.8c0,16.7-12.7,24-27.7,24h-8.8v24h-16V4.4z M75.1,38.5
			c8.8,0,13-3.9,13-11.3c0-7.4-4.7-10.1-13.4-10.1h-7.4v21.4H75.1z"/>
		<path class="st44" d="M116.1,4.4h16v70.9h-16V4.4z"/>
		<path class="st44" d="M145.5,40.2c0-23.5,15.6-37.1,34.5-37.1c10.3,0,17.6,4.4,22.4,9.2l-8.4,10.3c-3.5-3.2-7.3-5.6-13.4-5.6
			c-10.9,0-18.7,8.6-18.7,22.8c0,14.6,6.6,23,19.9,23c2.8,0,5.8-0.7,7.5-2.1V48.4h-11.7V35.3h26v32.7c-4.9,4.8-13.5,8.6-23.4,8.6
			C160.6,76.5,145.5,64.1,145.5,40.2z"/>
		<path class="st44" d="M239.9,4.4h44.7v13.4h-28.7v16.4h24.5v13.4h-24.5v27.6h-16V4.4z"/>
		<path class="st44" d="M296.9,4.4h16v70.9h-16V4.4z"/>
		<path class="st44" d="M329.6,4.4H346l18.5,35.2l7,15.6h0.4c-0.8-7.5-2-17.4-2-25.8v-25h15.3v70.9h-16.4l-18.5-35.3l-7-15.5h-0.4
			c0.8,7.8,2,17.3,2,25.7v25.1h-15.3V4.4z"/>
		<path class="st44" d="M415.1,4.4h19.2l22.3,70.9h-17l-9.3-35.9c-2-7.1-3.9-15.5-5.8-22.9h-0.4c-1.7,7.5-3.6,15.8-5.6,22.9
			l-9.3,35.9h-16.4L415.1,4.4z M407.5,45.9h34.1v12.5h-34.1V45.9z"/>
		<path class="st44" d="M464.2,4.4h16.4l18.5,35.2l7,15.6h0.4c-0.8-7.5-2-17.4-2-25.8v-25h15.3v70.9h-16.4l-18.5-35.3l-7-15.5h-0.4
			c0.8,7.8,2,17.3,2,25.7v25.1h-15.3V4.4z"/>
		<path class="st44" d="M533.1,40.2c0-23.5,15.5-37.1,33.4-37.1c9.2,0,16.5,4.3,21.3,9.2l-8.4,10.3c-3.6-3.3-7.4-5.6-12.5-5.6
			c-9.7,0-17.4,8.6-17.4,22.8c0,14.6,6.8,23,17.1,23c5.8,0,10.4-2.9,13.9-6.6l8.4,10.1c-5.9,6.8-13.7,10.4-22.9,10.4
			C548.1,76.5,533.1,64.1,533.1,40.2z"/>
		<path class="st44" d="M599.7,4.4h44.4v13.4h-28.4V32h24.2v13.4h-24.2v16.3h29.5v13.4h-45.5V4.4z"/>
	</g>
</g>
</svg>
